%TF.GenerationSoftware,KiCad,Pcbnew,7.0.9*%
%TF.CreationDate,2024-04-03T23:40:05+09:00*%
%TF.ProjectId,max31855_4_4,6d617833-3138-4353-955f-345f342e6b69,rev?*%
%TF.SameCoordinates,Original*%
%TF.FileFunction,Profile,NP*%
%FSLAX46Y46*%
G04 Gerber Fmt 4.6, Leading zero omitted, Abs format (unit mm)*
G04 Created by KiCad (PCBNEW 7.0.9) date 2024-04-03 23:40:05*
%MOMM*%
%LPD*%
G01*
G04 APERTURE LIST*
%TA.AperFunction,Profile*%
%ADD10C,0.100000*%
%TD*%
G04 APERTURE END LIST*
D10*
X177000000Y-138000000D02*
X177000000Y-116000000D01*
X155000000Y-138000000D02*
X177000000Y-138000000D01*
X177000000Y-116000000D02*
X155000000Y-116000000D01*
X155000000Y-116000000D02*
X155000000Y-138000000D01*
X155000000Y-138000000D02*
X155000000Y-116000000D01*
X133000000Y-138000000D02*
X155000000Y-138000000D01*
X155000000Y-116000000D02*
X133000000Y-116000000D01*
X133000000Y-116000000D02*
X133000000Y-138000000D01*
X133000000Y-138000000D02*
X133000000Y-116000000D01*
X111000000Y-138000000D02*
X133000000Y-138000000D01*
X133000000Y-116000000D02*
X111000000Y-116000000D01*
X111000000Y-116000000D02*
X111000000Y-138000000D01*
X111000000Y-138000000D02*
X111000000Y-116000000D01*
X89000000Y-138000000D02*
X111000000Y-138000000D01*
X111000000Y-116000000D02*
X89000000Y-116000000D01*
X89000000Y-116000000D02*
X89000000Y-138000000D01*
X177000000Y-116000000D02*
X177000000Y-94000000D01*
X155000000Y-116000000D02*
X177000000Y-116000000D01*
X177000000Y-94000000D02*
X155000000Y-94000000D01*
X155000000Y-94000000D02*
X155000000Y-116000000D01*
X155000000Y-116000000D02*
X155000000Y-94000000D01*
X133000000Y-116000000D02*
X155000000Y-116000000D01*
X155000000Y-94000000D02*
X133000000Y-94000000D01*
X133000000Y-94000000D02*
X133000000Y-116000000D01*
X133000000Y-116000000D02*
X133000000Y-94000000D01*
X111000000Y-116000000D02*
X133000000Y-116000000D01*
X133000000Y-94000000D02*
X111000000Y-94000000D01*
X111000000Y-94000000D02*
X111000000Y-116000000D01*
X111000000Y-116000000D02*
X111000000Y-94000000D01*
X89000000Y-116000000D02*
X111000000Y-116000000D01*
X111000000Y-94000000D02*
X89000000Y-94000000D01*
X89000000Y-94000000D02*
X89000000Y-116000000D01*
X177000000Y-94000000D02*
X177000000Y-72000000D01*
X155000000Y-94000000D02*
X177000000Y-94000000D01*
X177000000Y-72000000D02*
X155000000Y-72000000D01*
X155000000Y-72000000D02*
X155000000Y-94000000D01*
X155000000Y-94000000D02*
X155000000Y-72000000D01*
X133000000Y-94000000D02*
X155000000Y-94000000D01*
X155000000Y-72000000D02*
X133000000Y-72000000D01*
X133000000Y-72000000D02*
X133000000Y-94000000D01*
X133000000Y-94000000D02*
X133000000Y-72000000D01*
X111000000Y-94000000D02*
X133000000Y-94000000D01*
X133000000Y-72000000D02*
X111000000Y-72000000D01*
X111000000Y-72000000D02*
X111000000Y-94000000D01*
X111000000Y-94000000D02*
X111000000Y-72000000D01*
X89000000Y-94000000D02*
X111000000Y-94000000D01*
X111000000Y-72000000D02*
X89000000Y-72000000D01*
X89000000Y-72000000D02*
X89000000Y-94000000D01*
X177000000Y-72000000D02*
X177000000Y-50000000D01*
X155000000Y-72000000D02*
X177000000Y-72000000D01*
X177000000Y-50000000D02*
X155000000Y-50000000D01*
X155000000Y-50000000D02*
X155000000Y-72000000D01*
X155000000Y-72000000D02*
X155000000Y-50000000D01*
X133000000Y-72000000D02*
X155000000Y-72000000D01*
X155000000Y-50000000D02*
X133000000Y-50000000D01*
X133000000Y-50000000D02*
X133000000Y-72000000D01*
X133000000Y-72000000D02*
X133000000Y-50000000D01*
X111000000Y-72000000D02*
X133000000Y-72000000D01*
X133000000Y-50000000D02*
X111000000Y-50000000D01*
X111000000Y-50000000D02*
X111000000Y-72000000D01*
X89000000Y-50000000D02*
X89000000Y-72000000D01*
X111000000Y-50000000D02*
X89000000Y-50000000D01*
X111000000Y-72000000D02*
X111000000Y-50000000D01*
X89000000Y-72000000D02*
X111000000Y-72000000D01*
M02*
