%TF.GenerationSoftware,KiCad,Pcbnew,7.0.9*%
%TF.CreationDate,2024-04-03T23:40:05+09:00*%
%TF.ProjectId,max31855_4_4,6d617833-3138-4353-955f-345f342e6b69,rev?*%
%TF.SameCoordinates,Original*%
%TF.FileFunction,Soldermask,Bot*%
%TF.FilePolarity,Negative*%
%FSLAX46Y46*%
G04 Gerber Fmt 4.6, Leading zero omitted, Abs format (unit mm)*
G04 Created by KiCad (PCBNEW 7.0.9) date 2024-04-03 23:40:05*
%MOMM*%
%LPD*%
G01*
G04 APERTURE LIST*
%ADD10O,1.350000X1.350000*%
%ADD11R,1.350000X1.350000*%
%ADD12O,1.700000X1.700000*%
%ADD13R,1.700000X1.700000*%
G04 APERTURE END LIST*
D10*
%TO.C,J32*%
X174500000Y-128500000D03*
D11*
X174500000Y-126500000D03*
%TD*%
D12*
%TO.C,J31*%
X158500000Y-133120000D03*
X158500000Y-130580000D03*
X158500000Y-128040000D03*
X158500000Y-125500000D03*
X158500000Y-122960000D03*
D13*
X158500000Y-120420000D03*
%TD*%
D10*
%TO.C,J30*%
X152500000Y-128500000D03*
D11*
X152500000Y-126500000D03*
%TD*%
D12*
%TO.C,J29*%
X136500000Y-133120000D03*
X136500000Y-130580000D03*
X136500000Y-128040000D03*
X136500000Y-125500000D03*
X136500000Y-122960000D03*
D13*
X136500000Y-120420000D03*
%TD*%
D10*
%TO.C,J28*%
X130500000Y-128500000D03*
D11*
X130500000Y-126500000D03*
%TD*%
D12*
%TO.C,J27*%
X114500000Y-133120000D03*
X114500000Y-130580000D03*
X114500000Y-128040000D03*
X114500000Y-125500000D03*
X114500000Y-122960000D03*
D13*
X114500000Y-120420000D03*
%TD*%
D10*
%TO.C,J26*%
X108500000Y-128500000D03*
D11*
X108500000Y-126500000D03*
%TD*%
D12*
%TO.C,J25*%
X92500000Y-133120000D03*
X92500000Y-130580000D03*
X92500000Y-128040000D03*
X92500000Y-125500000D03*
X92500000Y-122960000D03*
D13*
X92500000Y-120420000D03*
%TD*%
D10*
%TO.C,J24*%
X174500000Y-106500000D03*
D11*
X174500000Y-104500000D03*
%TD*%
D12*
%TO.C,J23*%
X158500000Y-111120000D03*
X158500000Y-108580000D03*
X158500000Y-106040000D03*
X158500000Y-103500000D03*
X158500000Y-100960000D03*
D13*
X158500000Y-98420000D03*
%TD*%
D10*
%TO.C,J22*%
X152500000Y-106500000D03*
D11*
X152500000Y-104500000D03*
%TD*%
D12*
%TO.C,J21*%
X136500000Y-111120000D03*
X136500000Y-108580000D03*
X136500000Y-106040000D03*
X136500000Y-103500000D03*
X136500000Y-100960000D03*
D13*
X136500000Y-98420000D03*
%TD*%
D10*
%TO.C,J20*%
X130500000Y-106500000D03*
D11*
X130500000Y-104500000D03*
%TD*%
D12*
%TO.C,J19*%
X114500000Y-111120000D03*
X114500000Y-108580000D03*
X114500000Y-106040000D03*
X114500000Y-103500000D03*
X114500000Y-100960000D03*
D13*
X114500000Y-98420000D03*
%TD*%
D10*
%TO.C,J18*%
X108500000Y-106500000D03*
D11*
X108500000Y-104500000D03*
%TD*%
D12*
%TO.C,J17*%
X92500000Y-111120000D03*
X92500000Y-108580000D03*
X92500000Y-106040000D03*
X92500000Y-103500000D03*
X92500000Y-100960000D03*
D13*
X92500000Y-98420000D03*
%TD*%
D10*
%TO.C,J16*%
X174500000Y-84500000D03*
D11*
X174500000Y-82500000D03*
%TD*%
D12*
%TO.C,J15*%
X158500000Y-89120000D03*
X158500000Y-86580000D03*
X158500000Y-84040000D03*
X158500000Y-81500000D03*
X158500000Y-78960000D03*
D13*
X158500000Y-76420000D03*
%TD*%
D10*
%TO.C,J14*%
X152500000Y-84500000D03*
D11*
X152500000Y-82500000D03*
%TD*%
D12*
%TO.C,J13*%
X136500000Y-89120000D03*
X136500000Y-86580000D03*
X136500000Y-84040000D03*
X136500000Y-81500000D03*
X136500000Y-78960000D03*
D13*
X136500000Y-76420000D03*
%TD*%
D10*
%TO.C,J12*%
X130500000Y-84500000D03*
D11*
X130500000Y-82500000D03*
%TD*%
D12*
%TO.C,J11*%
X114500000Y-89120000D03*
X114500000Y-86580000D03*
X114500000Y-84040000D03*
X114500000Y-81500000D03*
X114500000Y-78960000D03*
D13*
X114500000Y-76420000D03*
%TD*%
D10*
%TO.C,J10*%
X108500000Y-84500000D03*
D11*
X108500000Y-82500000D03*
%TD*%
D12*
%TO.C,J9*%
X92500000Y-89120000D03*
X92500000Y-86580000D03*
X92500000Y-84040000D03*
X92500000Y-81500000D03*
X92500000Y-78960000D03*
D13*
X92500000Y-76420000D03*
%TD*%
D10*
%TO.C,J8*%
X174500000Y-62500000D03*
D11*
X174500000Y-60500000D03*
%TD*%
D12*
%TO.C,J7*%
X158500000Y-67120000D03*
X158500000Y-64580000D03*
X158500000Y-62040000D03*
X158500000Y-59500000D03*
X158500000Y-56960000D03*
D13*
X158500000Y-54420000D03*
%TD*%
D10*
%TO.C,J6*%
X152500000Y-62500000D03*
D11*
X152500000Y-60500000D03*
%TD*%
D12*
%TO.C,J5*%
X136500000Y-67120000D03*
X136500000Y-64580000D03*
X136500000Y-62040000D03*
X136500000Y-59500000D03*
X136500000Y-56960000D03*
D13*
X136500000Y-54420000D03*
%TD*%
D10*
%TO.C,J4*%
X130500000Y-62500000D03*
D11*
X130500000Y-60500000D03*
%TD*%
D12*
%TO.C,J3*%
X114500000Y-67120000D03*
X114500000Y-64580000D03*
X114500000Y-62040000D03*
X114500000Y-59500000D03*
X114500000Y-56960000D03*
D13*
X114500000Y-54420000D03*
%TD*%
D12*
%TO.C,J1*%
X92500000Y-67120000D03*
X92500000Y-64580000D03*
X92500000Y-62040000D03*
X92500000Y-59500000D03*
X92500000Y-56960000D03*
D13*
X92500000Y-54420000D03*
%TD*%
D10*
%TO.C,J2*%
X108500000Y-62500000D03*
D11*
X108500000Y-60500000D03*
%TD*%
M02*
