M48
; DRILL file {KiCad 7.0.9} date Wed Apr  3 23:40:13 2024
; FORMAT={-:-/ absolute / inch / decimal}
; #@! TF.CreationDate,2024-04-03T23:40:13+09:00
; #@! TF.GenerationSoftware,Kicad,Pcbnew,7.0.9
; #@! TF.FileFunction,Plated,1,2,PTH
FMAT,2
INCH
; #@! TA.AperFunction,Plated,PTH,ViaDrill
T1C0.0157
; #@! TA.AperFunction,Plated,PTH,ComponentDrill
T2C0.0315
; #@! TA.AperFunction,Plated,PTH,ComponentDrill
T3C0.0394
%
G90
G05
T1
X3.7402Y-2.5197
X3.7402Y-3.3858
X3.7402Y-4.252
X3.7402Y-5.1181
X3.7598Y-2.4016
X3.7598Y-3.2677
X3.7598Y-4.1339
X3.7598Y-5.0
X3.8583Y-2.6772
X3.8583Y-3.5433
X3.8583Y-4.4094
X3.8583Y-5.2756
X3.897Y-2.2447
X3.897Y-3.1109
X3.897Y-3.977
X3.897Y-4.8432
X3.8976Y-2.4409
X3.8976Y-3.3071
X3.8976Y-4.1732
X3.8976Y-5.0394
X3.9764Y-2.6969
X3.9764Y-3.563
X3.9764Y-4.4291
X3.9764Y-5.2953
X4.0157Y-2.5984
X4.0157Y-3.4646
X4.0157Y-4.3307
X4.0157Y-5.1969
X4.0551Y-2.3622
X4.0551Y-3.2283
X4.0551Y-4.0945
X4.0551Y-4.9606
X4.0945Y-2.4439
X4.0945Y-3.31
X4.0945Y-4.1762
X4.0945Y-5.0423
X4.1339Y-2.7756
X4.1339Y-3.6417
X4.1339Y-4.5079
X4.1339Y-5.374
X4.6063Y-2.5197
X4.6063Y-3.3858
X4.6063Y-4.252
X4.6063Y-5.1181
X4.626Y-2.4016
X4.626Y-3.2677
X4.626Y-4.1339
X4.626Y-5.0
X4.7244Y-2.6772
X4.7244Y-3.5433
X4.7244Y-4.4094
X4.7244Y-5.2756
X4.7631Y-2.2447
X4.7631Y-3.1109
X4.7631Y-3.977
X4.7631Y-4.8432
X4.7638Y-2.4409
X4.7638Y-3.3071
X4.7638Y-4.1732
X4.7638Y-5.0394
X4.8425Y-2.6969
X4.8425Y-3.563
X4.8425Y-4.4291
X4.8425Y-5.2953
X4.8819Y-2.5984
X4.8819Y-3.4646
X4.8819Y-4.3307
X4.8819Y-5.1969
X4.9213Y-2.3622
X4.9213Y-3.2283
X4.9213Y-4.0945
X4.9213Y-4.9606
X4.9606Y-2.4439
X4.9606Y-3.31
X4.9606Y-4.1762
X4.9606Y-5.0423
X5.0Y-2.7756
X5.0Y-3.6417
X5.0Y-4.5079
X5.0Y-5.374
X5.4724Y-2.5197
X5.4724Y-3.3858
X5.4724Y-4.252
X5.4724Y-5.1181
X5.4921Y-2.4016
X5.4921Y-3.2677
X5.4921Y-4.1339
X5.4921Y-5.0
X5.5906Y-2.6772
X5.5906Y-3.5433
X5.5906Y-4.4094
X5.5906Y-5.2756
X5.6293Y-2.2447
X5.6293Y-3.1109
X5.6293Y-3.977
X5.6293Y-4.8432
X5.6299Y-2.4409
X5.6299Y-3.3071
X5.6299Y-4.1732
X5.6299Y-5.0394
X5.7087Y-2.6969
X5.7087Y-3.563
X5.7087Y-4.4291
X5.7087Y-5.2953
X5.748Y-2.5984
X5.748Y-3.4646
X5.748Y-4.3307
X5.748Y-5.1969
X5.7874Y-2.3622
X5.7874Y-3.2283
X5.7874Y-4.0945
X5.7874Y-4.9606
X5.8268Y-2.4439
X5.8268Y-3.31
X5.8268Y-4.1762
X5.8268Y-5.0423
X5.8661Y-2.7756
X5.8661Y-3.6417
X5.8661Y-4.5079
X5.8661Y-5.374
X6.3386Y-2.5197
X6.3386Y-3.3858
X6.3386Y-4.252
X6.3386Y-5.1181
X6.3583Y-2.4016
X6.3583Y-3.2677
X6.3583Y-4.1339
X6.3583Y-5.0
X6.4567Y-2.6772
X6.4567Y-3.5433
X6.4567Y-4.4094
X6.4567Y-5.2756
X6.4954Y-2.2447
X6.4954Y-3.1109
X6.4954Y-3.977
X6.4954Y-4.8432
X6.4961Y-2.4409
X6.4961Y-3.3071
X6.4961Y-4.1732
X6.4961Y-5.0394
X6.5748Y-2.6969
X6.5748Y-3.563
X6.5748Y-4.4291
X6.5748Y-5.2953
X6.6142Y-2.5984
X6.6142Y-3.4646
X6.6142Y-4.3307
X6.6142Y-5.1969
X6.6535Y-2.3622
X6.6535Y-3.2283
X6.6535Y-4.0945
X6.6535Y-4.9606
X6.6929Y-2.4439
X6.6929Y-3.31
X6.6929Y-4.1762
X6.6929Y-5.0423
X6.7323Y-2.7756
X6.7323Y-3.6417
X6.7323Y-4.5079
X6.7323Y-5.374
T2
X4.2717Y-2.3819
X4.2717Y-2.4606
X4.2717Y-3.248
X4.2717Y-3.3268
X4.2717Y-4.1142
X4.2717Y-4.1929
X4.2717Y-4.9803
X4.2717Y-5.0591
X5.1378Y-2.3819
X5.1378Y-2.4606
X5.1378Y-3.248
X5.1378Y-3.3268
X5.1378Y-4.1142
X5.1378Y-4.1929
X5.1378Y-4.9803
X5.1378Y-5.0591
X6.0039Y-2.3819
X6.0039Y-2.4606
X6.0039Y-3.248
X6.0039Y-3.3268
X6.0039Y-4.1142
X6.0039Y-4.1929
X6.0039Y-4.9803
X6.0039Y-5.0591
X6.8701Y-2.3819
X6.8701Y-2.4606
X6.8701Y-3.248
X6.8701Y-3.3268
X6.8701Y-4.1142
X6.8701Y-4.1929
X6.8701Y-4.9803
X6.8701Y-5.0591
T3
X3.6417Y-2.1425
X3.6417Y-2.2425
X3.6417Y-2.3425
X3.6417Y-2.4425
X3.6417Y-2.5425
X3.6417Y-2.6425
X3.6417Y-3.0087
X3.6417Y-3.1087
X3.6417Y-3.2087
X3.6417Y-3.3087
X3.6417Y-3.4087
X3.6417Y-3.5087
X3.6417Y-3.8748
X3.6417Y-3.9748
X3.6417Y-4.0748
X3.6417Y-4.1748
X3.6417Y-4.2748
X3.6417Y-4.3748
X3.6417Y-4.7409
X3.6417Y-4.8409
X3.6417Y-4.9409
X3.6417Y-5.0409
X3.6417Y-5.1409
X3.6417Y-5.2409
X4.5079Y-2.1425
X4.5079Y-2.2425
X4.5079Y-2.3425
X4.5079Y-2.4425
X4.5079Y-2.5425
X4.5079Y-2.6425
X4.5079Y-3.0087
X4.5079Y-3.1087
X4.5079Y-3.2087
X4.5079Y-3.3087
X4.5079Y-3.4087
X4.5079Y-3.5087
X4.5079Y-3.8748
X4.5079Y-3.9748
X4.5079Y-4.0748
X4.5079Y-4.1748
X4.5079Y-4.2748
X4.5079Y-4.3748
X4.5079Y-4.7409
X4.5079Y-4.8409
X4.5079Y-4.9409
X4.5079Y-5.0409
X4.5079Y-5.1409
X4.5079Y-5.2409
X5.374Y-2.1425
X5.374Y-2.2425
X5.374Y-2.3425
X5.374Y-2.4425
X5.374Y-2.5425
X5.374Y-2.6425
X5.374Y-3.0087
X5.374Y-3.1087
X5.374Y-3.2087
X5.374Y-3.3087
X5.374Y-3.4087
X5.374Y-3.5087
X5.374Y-3.8748
X5.374Y-3.9748
X5.374Y-4.0748
X5.374Y-4.1748
X5.374Y-4.2748
X5.374Y-4.3748
X5.374Y-4.7409
X5.374Y-4.8409
X5.374Y-4.9409
X5.374Y-5.0409
X5.374Y-5.1409
X5.374Y-5.2409
X6.2402Y-2.1425
X6.2402Y-2.2425
X6.2402Y-2.3425
X6.2402Y-2.4425
X6.2402Y-2.5425
X6.2402Y-2.6425
X6.2402Y-3.0087
X6.2402Y-3.1087
X6.2402Y-3.2087
X6.2402Y-3.3087
X6.2402Y-3.4087
X6.2402Y-3.5087
X6.2402Y-3.8748
X6.2402Y-3.9748
X6.2402Y-4.0748
X6.2402Y-4.1748
X6.2402Y-4.2748
X6.2402Y-4.3748
X6.2402Y-4.7409
X6.2402Y-4.8409
X6.2402Y-4.9409
X6.2402Y-5.0409
X6.2402Y-5.1409
X6.2402Y-5.2409
T0
M30
