%TF.GenerationSoftware,KiCad,Pcbnew,7.0.9*%
%TF.CreationDate,2024-04-03T22:09:18+09:00*%
%TF.ProjectId,max31855,6d617833-3138-4353-952e-6b696361645f,rev?*%
%TF.SameCoordinates,Original*%
%TF.FileFunction,Copper,L2,Bot*%
%TF.FilePolarity,Positive*%
%FSLAX46Y46*%
G04 Gerber Fmt 4.6, Leading zero omitted, Abs format (unit mm)*
G04 Created by KiCad (PCBNEW 7.0.9) date 2024-04-03 22:09:18*
%MOMM*%
%LPD*%
G01*
G04 APERTURE LIST*
%TA.AperFunction,ComponentPad*%
%ADD10R,1.350000X1.350000*%
%TD*%
%TA.AperFunction,ComponentPad*%
%ADD11O,1.350000X1.350000*%
%TD*%
%TA.AperFunction,ComponentPad*%
%ADD12R,1.700000X1.700000*%
%TD*%
%TA.AperFunction,ComponentPad*%
%ADD13O,1.700000X1.700000*%
%TD*%
%TA.AperFunction,ViaPad*%
%ADD14C,0.800000*%
%TD*%
%TA.AperFunction,Conductor*%
%ADD15C,0.500000*%
%TD*%
G04 APERTURE END LIST*
D10*
%TO.P,J2,1,Pin_1*%
%TO.N,Net-(J2-Pin_1)*%
X130000000Y-110500000D03*
D11*
%TO.P,J2,2,Pin_2*%
%TO.N,Net-(J2-Pin_2)*%
X130000000Y-112500000D03*
%TD*%
D12*
%TO.P,J1,1,Pin_1*%
%TO.N,+5V*%
X114000000Y-104420000D03*
D13*
%TO.P,J1,2,Pin_2*%
%TO.N,+3.3V*%
X114000000Y-106960000D03*
%TO.P,J1,3,Pin_3*%
%TO.N,GND*%
X114000000Y-109500000D03*
%TO.P,J1,4,Pin_4*%
%TO.N,Net-(J1-Pin_4)*%
X114000000Y-112040000D03*
%TO.P,J1,5,Pin_5*%
%TO.N,Net-(D1-K)*%
X114000000Y-114580000D03*
%TO.P,J1,6,Pin_6*%
%TO.N,Net-(D2-K)*%
X114000000Y-117120000D03*
%TD*%
D14*
%TO.N,GND*%
X124500000Y-110000000D03*
X117000000Y-111000000D03*
%TO.N,Net-(J1-Pin_4)*%
X120500000Y-112000000D03*
X116500000Y-114000000D03*
%TO.N,Net-(D1-A)*%
X119500000Y-118000000D03*
X123500000Y-116000000D03*
%TO.N,Net-(D2-A)*%
X122500000Y-118500000D03*
X126500000Y-120500000D03*
%TO.N,Net-(U1-T+)*%
X125500000Y-112074500D03*
X120483512Y-107016488D03*
%TD*%
D15*
%TO.N,GND*%
X123500000Y-111000000D02*
X117000000Y-111000000D01*
X124500000Y-110000000D02*
X123500000Y-111000000D01*
%TO.N,Net-(J1-Pin_4)*%
X118500000Y-112000000D02*
X120500000Y-112000000D01*
X116500000Y-114000000D02*
X118500000Y-112000000D01*
%TO.N,Net-(D1-A)*%
X120500000Y-116000000D02*
X119500000Y-117000000D01*
X119500000Y-117000000D02*
X119500000Y-118000000D01*
X123500000Y-116000000D02*
X120500000Y-116000000D01*
%TO.N,Net-(D2-A)*%
X122500000Y-119500000D02*
X122500000Y-118500000D01*
X123500000Y-120500000D02*
X122500000Y-119500000D01*
X126500000Y-120500000D02*
X123500000Y-120500000D01*
%TO.N,Net-(U1-T+)*%
X125500000Y-109500000D02*
X125500000Y-112074500D01*
X123016488Y-107016488D02*
X125500000Y-109500000D01*
X120483512Y-107016488D02*
X123016488Y-107016488D01*
%TD*%
%TA.AperFunction,Conductor*%
%TO.N,GND*%
G36*
X132442539Y-100020185D02*
G01*
X132488294Y-100072989D01*
X132499500Y-100124500D01*
X132499500Y-121875500D01*
X132479815Y-121942539D01*
X132427011Y-121988294D01*
X132375500Y-121999500D01*
X110624500Y-121999500D01*
X110557461Y-121979815D01*
X110511706Y-121927011D01*
X110500500Y-121875500D01*
X110500500Y-117120000D01*
X112644341Y-117120000D01*
X112664936Y-117355403D01*
X112664938Y-117355413D01*
X112726094Y-117583655D01*
X112726096Y-117583659D01*
X112726097Y-117583663D01*
X112825965Y-117797830D01*
X112825967Y-117797834D01*
X112846468Y-117827112D01*
X112961505Y-117991401D01*
X113128599Y-118158495D01*
X113225384Y-118226265D01*
X113322165Y-118294032D01*
X113322167Y-118294033D01*
X113322170Y-118294035D01*
X113536337Y-118393903D01*
X113764592Y-118455063D01*
X113952918Y-118471539D01*
X113999999Y-118475659D01*
X114000000Y-118475659D01*
X114000001Y-118475659D01*
X114039234Y-118472226D01*
X114235408Y-118455063D01*
X114463663Y-118393903D01*
X114677830Y-118294035D01*
X114871401Y-118158495D01*
X115029896Y-118000000D01*
X118594540Y-118000000D01*
X118614326Y-118188256D01*
X118614327Y-118188259D01*
X118672818Y-118368277D01*
X118672821Y-118368284D01*
X118767467Y-118532216D01*
X118894129Y-118672888D01*
X119047265Y-118784148D01*
X119047270Y-118784151D01*
X119220192Y-118861142D01*
X119220197Y-118861144D01*
X119405354Y-118900500D01*
X119405355Y-118900500D01*
X119594644Y-118900500D01*
X119594646Y-118900500D01*
X119779803Y-118861144D01*
X119952730Y-118784151D01*
X120105871Y-118672888D01*
X120232533Y-118532216D01*
X120251133Y-118500000D01*
X121594540Y-118500000D01*
X121614326Y-118688256D01*
X121614327Y-118688259D01*
X121672818Y-118868277D01*
X121672821Y-118868284D01*
X121732887Y-118972321D01*
X121749500Y-119034321D01*
X121749500Y-119436294D01*
X121748191Y-119454263D01*
X121744710Y-119478025D01*
X121749264Y-119530064D01*
X121749500Y-119535470D01*
X121749500Y-119543709D01*
X121753306Y-119576274D01*
X121760000Y-119652791D01*
X121761461Y-119659867D01*
X121761403Y-119659878D01*
X121763034Y-119667237D01*
X121763092Y-119667224D01*
X121764757Y-119674250D01*
X121791025Y-119746424D01*
X121815185Y-119819331D01*
X121818236Y-119825874D01*
X121818182Y-119825898D01*
X121821470Y-119832688D01*
X121821521Y-119832663D01*
X121824761Y-119839113D01*
X121824762Y-119839114D01*
X121824763Y-119839117D01*
X121866965Y-119903283D01*
X121907287Y-119968655D01*
X121911766Y-119974319D01*
X121911719Y-119974355D01*
X121916483Y-119980202D01*
X121916529Y-119980164D01*
X121921167Y-119985692D01*
X121921170Y-119985696D01*
X121921173Y-119985698D01*
X121921174Y-119985700D01*
X121977019Y-120038386D01*
X122924269Y-120985637D01*
X122936049Y-120999268D01*
X122950389Y-121018530D01*
X122950391Y-121018532D01*
X122990409Y-121052110D01*
X122994399Y-121055766D01*
X123000227Y-121061594D01*
X123025947Y-121081931D01*
X123084788Y-121131304D01*
X123090818Y-121135270D01*
X123090785Y-121135319D01*
X123097143Y-121139369D01*
X123097175Y-121139319D01*
X123103320Y-121143109D01*
X123103323Y-121143111D01*
X123172936Y-121175572D01*
X123241567Y-121210040D01*
X123241572Y-121210041D01*
X123248361Y-121212513D01*
X123248340Y-121212570D01*
X123255455Y-121215043D01*
X123255475Y-121214986D01*
X123262330Y-121217258D01*
X123337558Y-121232790D01*
X123412279Y-121250500D01*
X123412289Y-121250500D01*
X123419452Y-121251338D01*
X123419444Y-121251397D01*
X123426945Y-121252164D01*
X123426951Y-121252105D01*
X123434140Y-121252734D01*
X123434144Y-121252733D01*
X123434145Y-121252734D01*
X123510918Y-121250500D01*
X125960663Y-121250500D01*
X126027702Y-121270185D01*
X126033548Y-121274182D01*
X126047265Y-121284148D01*
X126047270Y-121284151D01*
X126220192Y-121361142D01*
X126220197Y-121361144D01*
X126405354Y-121400500D01*
X126405355Y-121400500D01*
X126594644Y-121400500D01*
X126594646Y-121400500D01*
X126779803Y-121361144D01*
X126952730Y-121284151D01*
X127105871Y-121172888D01*
X127232533Y-121032216D01*
X127327179Y-120868284D01*
X127385674Y-120688256D01*
X127405460Y-120500000D01*
X127385674Y-120311744D01*
X127327179Y-120131716D01*
X127232533Y-119967784D01*
X127105871Y-119827112D01*
X127104167Y-119825874D01*
X126952734Y-119715851D01*
X126952729Y-119715848D01*
X126779807Y-119638857D01*
X126779802Y-119638855D01*
X126634001Y-119607865D01*
X126594646Y-119599500D01*
X126405354Y-119599500D01*
X126372897Y-119606398D01*
X126220197Y-119638855D01*
X126220192Y-119638857D01*
X126047270Y-119715848D01*
X126047265Y-119715851D01*
X126033548Y-119725818D01*
X125967742Y-119749298D01*
X125960663Y-119749500D01*
X123862229Y-119749500D01*
X123795190Y-119729815D01*
X123774548Y-119713181D01*
X123286819Y-119225451D01*
X123253334Y-119164128D01*
X123250500Y-119137770D01*
X123250500Y-119034321D01*
X123267113Y-118972321D01*
X123327179Y-118868284D01*
X123385674Y-118688256D01*
X123405460Y-118500000D01*
X123385674Y-118311744D01*
X123327179Y-118131716D01*
X123232533Y-117967784D01*
X123105871Y-117827112D01*
X123084719Y-117811744D01*
X122952734Y-117715851D01*
X122952729Y-117715848D01*
X122779807Y-117638857D01*
X122779802Y-117638855D01*
X122634001Y-117607865D01*
X122594646Y-117599500D01*
X122405354Y-117599500D01*
X122372897Y-117606398D01*
X122220197Y-117638855D01*
X122220192Y-117638857D01*
X122047270Y-117715848D01*
X122047265Y-117715851D01*
X121894129Y-117827111D01*
X121767466Y-117967785D01*
X121672821Y-118131715D01*
X121672818Y-118131722D01*
X121620081Y-118294032D01*
X121614326Y-118311744D01*
X121594540Y-118500000D01*
X120251133Y-118500000D01*
X120327179Y-118368284D01*
X120385674Y-118188256D01*
X120405460Y-118000000D01*
X120385674Y-117811744D01*
X120327179Y-117631716D01*
X120308579Y-117599500D01*
X120267113Y-117527677D01*
X120250500Y-117465677D01*
X120250500Y-117362229D01*
X120270185Y-117295190D01*
X120286819Y-117274548D01*
X120774548Y-116786819D01*
X120835871Y-116753334D01*
X120862229Y-116750500D01*
X122960663Y-116750500D01*
X123027702Y-116770185D01*
X123033548Y-116774182D01*
X123047265Y-116784148D01*
X123047270Y-116784151D01*
X123220192Y-116861142D01*
X123220197Y-116861144D01*
X123405354Y-116900500D01*
X123405355Y-116900500D01*
X123594644Y-116900500D01*
X123594646Y-116900500D01*
X123779803Y-116861144D01*
X123952730Y-116784151D01*
X124105871Y-116672888D01*
X124232533Y-116532216D01*
X124327179Y-116368284D01*
X124385674Y-116188256D01*
X124405460Y-116000000D01*
X124385674Y-115811744D01*
X124327179Y-115631716D01*
X124232533Y-115467784D01*
X124105871Y-115327112D01*
X124105870Y-115327111D01*
X123952734Y-115215851D01*
X123952729Y-115215848D01*
X123779807Y-115138857D01*
X123779802Y-115138855D01*
X123634001Y-115107865D01*
X123594646Y-115099500D01*
X123405354Y-115099500D01*
X123372897Y-115106398D01*
X123220197Y-115138855D01*
X123220192Y-115138857D01*
X123047270Y-115215848D01*
X123047265Y-115215851D01*
X123033548Y-115225818D01*
X122967742Y-115249298D01*
X122960663Y-115249500D01*
X120563705Y-115249500D01*
X120545735Y-115248191D01*
X120521972Y-115244710D01*
X120476533Y-115248686D01*
X120469931Y-115249264D01*
X120464530Y-115249500D01*
X120456289Y-115249500D01*
X120434579Y-115252037D01*
X120423724Y-115253306D01*
X120408419Y-115254645D01*
X120347199Y-115260001D01*
X120340132Y-115261460D01*
X120340120Y-115261404D01*
X120332763Y-115263035D01*
X120332777Y-115263092D01*
X120325743Y-115264759D01*
X120253575Y-115291025D01*
X120180675Y-115315181D01*
X120174126Y-115318236D01*
X120174101Y-115318183D01*
X120167308Y-115321471D01*
X120167334Y-115321523D01*
X120160880Y-115324764D01*
X120096708Y-115366971D01*
X120031347Y-115407285D01*
X120025683Y-115411765D01*
X120025647Y-115411719D01*
X120019798Y-115416484D01*
X120019835Y-115416528D01*
X120014310Y-115421164D01*
X119961598Y-115477034D01*
X119014358Y-116424272D01*
X119000729Y-116436051D01*
X118981468Y-116450390D01*
X118947898Y-116490397D01*
X118944253Y-116494376D01*
X118938409Y-116500222D01*
X118918059Y-116525959D01*
X118868695Y-116584789D01*
X118864729Y-116590819D01*
X118864682Y-116590788D01*
X118860630Y-116597147D01*
X118860679Y-116597177D01*
X118856889Y-116603321D01*
X118824424Y-116672941D01*
X118789960Y-116741566D01*
X118787488Y-116748357D01*
X118787432Y-116748336D01*
X118784960Y-116755450D01*
X118785015Y-116755469D01*
X118782742Y-116762327D01*
X118774975Y-116799946D01*
X118767207Y-116837565D01*
X118761619Y-116861144D01*
X118749498Y-116912286D01*
X118748661Y-116919454D01*
X118748601Y-116919447D01*
X118747835Y-116926945D01*
X118747895Y-116926951D01*
X118747265Y-116934140D01*
X118749500Y-117010916D01*
X118749500Y-117465677D01*
X118732887Y-117527677D01*
X118672821Y-117631714D01*
X118614327Y-117811740D01*
X118614326Y-117811744D01*
X118594540Y-118000000D01*
X115029896Y-118000000D01*
X115038495Y-117991401D01*
X115174035Y-117797830D01*
X115273903Y-117583663D01*
X115335063Y-117355408D01*
X115355659Y-117120000D01*
X115335063Y-116884592D01*
X115273903Y-116656337D01*
X115174035Y-116442171D01*
X115165975Y-116430659D01*
X115038494Y-116248597D01*
X114871402Y-116081506D01*
X114871396Y-116081501D01*
X114685842Y-115951575D01*
X114642217Y-115896998D01*
X114635023Y-115827500D01*
X114666546Y-115765145D01*
X114685842Y-115748425D01*
X114708026Y-115732891D01*
X114871401Y-115618495D01*
X115038495Y-115451401D01*
X115174035Y-115257830D01*
X115273903Y-115043663D01*
X115335063Y-114815408D01*
X115355659Y-114580000D01*
X115335063Y-114344592D01*
X115273903Y-114116337D01*
X115219654Y-114000000D01*
X115594540Y-114000000D01*
X115614326Y-114188256D01*
X115614327Y-114188259D01*
X115672818Y-114368277D01*
X115672821Y-114368284D01*
X115767467Y-114532216D01*
X115894129Y-114672888D01*
X116047265Y-114784148D01*
X116047270Y-114784151D01*
X116220192Y-114861142D01*
X116220197Y-114861144D01*
X116405354Y-114900500D01*
X116405355Y-114900500D01*
X116594644Y-114900500D01*
X116594646Y-114900500D01*
X116779803Y-114861144D01*
X116952730Y-114784151D01*
X117105871Y-114672888D01*
X117232533Y-114532216D01*
X117327179Y-114368284D01*
X117382522Y-114197955D01*
X117412769Y-114148597D01*
X118774548Y-112786819D01*
X118835871Y-112753334D01*
X118862229Y-112750500D01*
X119960663Y-112750500D01*
X120027702Y-112770185D01*
X120033548Y-112774182D01*
X120047265Y-112784148D01*
X120047270Y-112784151D01*
X120220192Y-112861142D01*
X120220197Y-112861144D01*
X120405354Y-112900500D01*
X120405355Y-112900500D01*
X120594644Y-112900500D01*
X120594646Y-112900500D01*
X120779803Y-112861144D01*
X120952730Y-112784151D01*
X121105871Y-112672888D01*
X121232533Y-112532216D01*
X121327179Y-112368284D01*
X121385674Y-112188256D01*
X121405460Y-112000000D01*
X121385674Y-111811744D01*
X121327179Y-111631716D01*
X121232533Y-111467784D01*
X121105871Y-111327112D01*
X121102638Y-111324763D01*
X120952734Y-111215851D01*
X120952729Y-111215848D01*
X120779807Y-111138857D01*
X120779802Y-111138855D01*
X120634001Y-111107865D01*
X120594646Y-111099500D01*
X120405354Y-111099500D01*
X120372897Y-111106398D01*
X120220197Y-111138855D01*
X120220192Y-111138857D01*
X120047270Y-111215848D01*
X120047265Y-111215851D01*
X120033548Y-111225818D01*
X119967742Y-111249298D01*
X119960663Y-111249500D01*
X118563705Y-111249500D01*
X118545735Y-111248191D01*
X118521972Y-111244710D01*
X118476890Y-111248655D01*
X118469933Y-111249264D01*
X118464532Y-111249500D01*
X118456287Y-111249500D01*
X118430222Y-111252546D01*
X118423705Y-111253308D01*
X118418403Y-111253771D01*
X118347201Y-111260001D01*
X118340134Y-111261461D01*
X118340122Y-111261404D01*
X118332753Y-111263038D01*
X118332767Y-111263095D01*
X118325739Y-111264760D01*
X118270536Y-111284852D01*
X118253563Y-111291030D01*
X118180666Y-111315186D01*
X118180664Y-111315186D01*
X118180661Y-111315188D01*
X118174122Y-111318237D01*
X118174097Y-111318185D01*
X118167308Y-111321471D01*
X118167334Y-111321522D01*
X118160884Y-111324761D01*
X118096716Y-111366964D01*
X118031347Y-111407285D01*
X118025677Y-111411769D01*
X118025641Y-111411723D01*
X118019798Y-111416484D01*
X118019835Y-111416528D01*
X118014310Y-111421164D01*
X117961614Y-111477017D01*
X116347228Y-113091402D01*
X116285905Y-113124887D01*
X116285329Y-113125011D01*
X116220196Y-113138856D01*
X116220192Y-113138857D01*
X116047270Y-113215848D01*
X116047265Y-113215851D01*
X115894129Y-113327111D01*
X115767466Y-113467785D01*
X115672821Y-113631715D01*
X115672818Y-113631722D01*
X115614327Y-113811740D01*
X115614326Y-113811744D01*
X115594540Y-114000000D01*
X115219654Y-114000000D01*
X115174035Y-113902171D01*
X115038495Y-113708599D01*
X115038494Y-113708597D01*
X114871402Y-113541506D01*
X114871396Y-113541501D01*
X114685842Y-113411575D01*
X114642217Y-113356998D01*
X114635023Y-113287500D01*
X114666546Y-113225145D01*
X114685842Y-113208425D01*
X114785195Y-113138857D01*
X114871401Y-113078495D01*
X115038495Y-112911401D01*
X115174035Y-112717830D01*
X115273903Y-112503663D01*
X115335063Y-112275408D01*
X115355659Y-112040000D01*
X115335063Y-111804592D01*
X115273903Y-111576337D01*
X115174035Y-111362171D01*
X115147841Y-111324761D01*
X115038494Y-111168597D01*
X114871402Y-111001506D01*
X114871401Y-111001505D01*
X114685405Y-110871269D01*
X114641781Y-110816692D01*
X114634588Y-110747193D01*
X114666110Y-110684839D01*
X114685405Y-110668119D01*
X114871082Y-110538105D01*
X115038105Y-110371082D01*
X115173600Y-110177578D01*
X115273429Y-109963492D01*
X115273432Y-109963486D01*
X115330636Y-109750000D01*
X114433686Y-109750000D01*
X114459493Y-109709844D01*
X114500000Y-109571889D01*
X114500000Y-109428111D01*
X114459493Y-109290156D01*
X114433686Y-109250000D01*
X115330636Y-109250000D01*
X115330635Y-109249999D01*
X115273432Y-109036513D01*
X115273429Y-109036507D01*
X115173600Y-108822422D01*
X115173599Y-108822420D01*
X115038113Y-108628926D01*
X115038108Y-108628920D01*
X114871078Y-108461890D01*
X114685405Y-108331879D01*
X114641780Y-108277302D01*
X114634588Y-108207804D01*
X114666110Y-108145449D01*
X114685406Y-108128730D01*
X114871401Y-107998495D01*
X115038495Y-107831401D01*
X115174035Y-107637830D01*
X115273903Y-107423663D01*
X115335063Y-107195408D01*
X115350717Y-107016488D01*
X119578052Y-107016488D01*
X119597838Y-107204744D01*
X119597839Y-107204747D01*
X119656330Y-107384765D01*
X119656333Y-107384772D01*
X119750979Y-107548704D01*
X119877641Y-107689376D01*
X120030777Y-107800636D01*
X120030782Y-107800639D01*
X120203704Y-107877630D01*
X120203709Y-107877632D01*
X120388866Y-107916988D01*
X120388867Y-107916988D01*
X120578156Y-107916988D01*
X120578158Y-107916988D01*
X120763315Y-107877632D01*
X120936242Y-107800639D01*
X120938288Y-107799152D01*
X120949964Y-107790670D01*
X121015770Y-107767190D01*
X121022849Y-107766988D01*
X122654258Y-107766988D01*
X122721297Y-107786673D01*
X122741939Y-107803307D01*
X124713181Y-109774548D01*
X124746666Y-109835871D01*
X124749500Y-109862229D01*
X124749500Y-111540177D01*
X124732887Y-111602177D01*
X124672821Y-111706214D01*
X124616833Y-111878527D01*
X124614326Y-111886244D01*
X124594540Y-112074500D01*
X124614326Y-112262756D01*
X124614327Y-112262759D01*
X124672818Y-112442777D01*
X124672821Y-112442784D01*
X124767467Y-112606716D01*
X124894129Y-112747388D01*
X125047265Y-112858648D01*
X125047270Y-112858651D01*
X125220192Y-112935642D01*
X125220197Y-112935644D01*
X125405354Y-112975000D01*
X125405355Y-112975000D01*
X125594644Y-112975000D01*
X125594646Y-112975000D01*
X125779803Y-112935644D01*
X125952730Y-112858651D01*
X126105871Y-112747388D01*
X126232533Y-112606716D01*
X126294145Y-112500000D01*
X128819464Y-112500000D01*
X128839564Y-112716918D01*
X128839564Y-112716920D01*
X128839565Y-112716923D01*
X128891797Y-112900500D01*
X128899184Y-112926462D01*
X128974887Y-113078493D01*
X128996288Y-113121472D01*
X129127573Y-113295322D01*
X129288568Y-113442088D01*
X129288575Y-113442092D01*
X129288576Y-113442093D01*
X129473786Y-113556770D01*
X129473792Y-113556773D01*
X129496664Y-113565633D01*
X129676931Y-113635470D01*
X129891074Y-113675500D01*
X129891076Y-113675500D01*
X130108924Y-113675500D01*
X130108926Y-113675500D01*
X130323069Y-113635470D01*
X130526210Y-113556772D01*
X130711432Y-113442088D01*
X130872427Y-113295322D01*
X131003712Y-113121472D01*
X131100817Y-112926459D01*
X131160435Y-112716923D01*
X131180536Y-112500000D01*
X131160435Y-112283077D01*
X131100817Y-112073541D01*
X131003712Y-111878528D01*
X130922251Y-111770656D01*
X130897560Y-111705297D01*
X130912125Y-111636962D01*
X130946895Y-111596665D01*
X131022352Y-111540177D01*
X131032546Y-111532546D01*
X131118796Y-111417331D01*
X131169091Y-111282483D01*
X131175500Y-111222873D01*
X131175499Y-109777128D01*
X131169091Y-109717517D01*
X131166229Y-109709844D01*
X131118797Y-109582671D01*
X131118793Y-109582664D01*
X131032547Y-109467455D01*
X131032544Y-109467452D01*
X130917335Y-109381206D01*
X130917328Y-109381202D01*
X130782482Y-109330908D01*
X130782483Y-109330908D01*
X130722883Y-109324501D01*
X130722881Y-109324500D01*
X130722873Y-109324500D01*
X130722864Y-109324500D01*
X129277129Y-109324500D01*
X129277123Y-109324501D01*
X129217516Y-109330908D01*
X129082671Y-109381202D01*
X129082664Y-109381206D01*
X128967455Y-109467452D01*
X128967452Y-109467455D01*
X128881206Y-109582664D01*
X128881202Y-109582671D01*
X128830908Y-109717517D01*
X128824777Y-109774548D01*
X128824501Y-109777123D01*
X128824500Y-109777135D01*
X128824500Y-111222870D01*
X128824501Y-111222876D01*
X128830908Y-111282483D01*
X128881202Y-111417328D01*
X128881206Y-111417335D01*
X128925885Y-111477017D01*
X128967454Y-111532546D01*
X129053105Y-111596664D01*
X129094975Y-111652597D01*
X129099959Y-111722289D01*
X129077748Y-111770656D01*
X128996288Y-111878528D01*
X128899184Y-112073537D01*
X128899183Y-112073541D01*
X128841749Y-112275403D01*
X128839564Y-112283081D01*
X128819464Y-112499999D01*
X128819464Y-112500000D01*
X126294145Y-112500000D01*
X126327179Y-112442784D01*
X126385674Y-112262756D01*
X126405460Y-112074500D01*
X126385674Y-111886244D01*
X126327179Y-111706216D01*
X126327178Y-111706214D01*
X126267113Y-111602177D01*
X126250500Y-111540177D01*
X126250500Y-109563705D01*
X126251809Y-109545735D01*
X126255289Y-109521974D01*
X126250736Y-109469939D01*
X126250500Y-109464532D01*
X126250500Y-109456297D01*
X126250500Y-109456291D01*
X126246691Y-109423707D01*
X126239998Y-109347202D01*
X126239996Y-109347197D01*
X126238538Y-109340133D01*
X126238597Y-109340120D01*
X126236967Y-109332764D01*
X126236908Y-109332779D01*
X126235242Y-109325753D01*
X126235241Y-109325745D01*
X126208973Y-109253573D01*
X126207789Y-109249999D01*
X126184815Y-109180666D01*
X126181763Y-109174121D01*
X126181817Y-109174095D01*
X126178533Y-109167312D01*
X126178480Y-109167340D01*
X126175238Y-109160886D01*
X126175237Y-109160883D01*
X126133038Y-109096723D01*
X126092712Y-109031344D01*
X126092711Y-109031343D01*
X126092710Y-109031341D01*
X126088234Y-109025681D01*
X126088280Y-109025643D01*
X126083519Y-109019799D01*
X126083474Y-109019838D01*
X126078834Y-109014308D01*
X126022982Y-108961613D01*
X123592217Y-106530849D01*
X123580437Y-106517218D01*
X123572970Y-106507189D01*
X123566100Y-106497960D01*
X123566098Y-106497958D01*
X123526075Y-106464374D01*
X123522100Y-106460732D01*
X123519178Y-106457810D01*
X123516268Y-106454899D01*
X123490528Y-106434547D01*
X123431697Y-106385182D01*
X123425668Y-106381217D01*
X123425700Y-106381168D01*
X123419341Y-106377116D01*
X123419310Y-106377167D01*
X123413168Y-106373379D01*
X123413166Y-106373378D01*
X123413165Y-106373377D01*
X123373962Y-106355096D01*
X123343546Y-106340912D01*
X123309382Y-106323755D01*
X123274921Y-106306448D01*
X123274919Y-106306447D01*
X123274918Y-106306447D01*
X123268133Y-106303977D01*
X123268153Y-106303921D01*
X123261037Y-106301447D01*
X123261019Y-106301503D01*
X123254159Y-106299230D01*
X123226329Y-106293484D01*
X123178922Y-106283695D01*
X123129960Y-106272091D01*
X123104207Y-106265987D01*
X123097035Y-106265149D01*
X123097041Y-106265089D01*
X123089543Y-106264323D01*
X123089538Y-106264383D01*
X123082348Y-106263753D01*
X123005571Y-106265988D01*
X121022849Y-106265988D01*
X120955810Y-106246303D01*
X120949964Y-106242306D01*
X120936246Y-106232339D01*
X120936241Y-106232336D01*
X120763319Y-106155345D01*
X120763314Y-106155343D01*
X120617513Y-106124353D01*
X120578158Y-106115988D01*
X120388866Y-106115988D01*
X120356409Y-106122886D01*
X120203709Y-106155343D01*
X120203704Y-106155345D01*
X120030782Y-106232336D01*
X120030777Y-106232339D01*
X119877641Y-106343599D01*
X119750978Y-106484273D01*
X119656333Y-106648203D01*
X119656330Y-106648210D01*
X119597839Y-106828228D01*
X119597838Y-106828232D01*
X119578052Y-107016488D01*
X115350717Y-107016488D01*
X115355659Y-106960000D01*
X115335063Y-106724592D01*
X115283150Y-106530849D01*
X115273905Y-106496344D01*
X115273904Y-106496343D01*
X115273903Y-106496337D01*
X115174035Y-106282171D01*
X115162116Y-106265149D01*
X115038496Y-106088600D01*
X115038495Y-106088599D01*
X114916567Y-105966671D01*
X114883084Y-105905351D01*
X114888068Y-105835659D01*
X114929939Y-105779725D01*
X114960915Y-105762810D01*
X115092331Y-105713796D01*
X115207546Y-105627546D01*
X115293796Y-105512331D01*
X115344091Y-105377483D01*
X115350500Y-105317873D01*
X115350499Y-103522128D01*
X115344091Y-103462517D01*
X115293796Y-103327669D01*
X115293795Y-103327668D01*
X115293793Y-103327664D01*
X115207547Y-103212455D01*
X115207544Y-103212452D01*
X115092335Y-103126206D01*
X115092328Y-103126202D01*
X114957482Y-103075908D01*
X114957483Y-103075908D01*
X114897883Y-103069501D01*
X114897881Y-103069500D01*
X114897873Y-103069500D01*
X114897864Y-103069500D01*
X113102129Y-103069500D01*
X113102123Y-103069501D01*
X113042516Y-103075908D01*
X112907671Y-103126202D01*
X112907664Y-103126206D01*
X112792455Y-103212452D01*
X112792452Y-103212455D01*
X112706206Y-103327664D01*
X112706202Y-103327671D01*
X112655908Y-103462517D01*
X112649501Y-103522116D01*
X112649501Y-103522123D01*
X112649500Y-103522135D01*
X112649500Y-105317870D01*
X112649501Y-105317876D01*
X112655908Y-105377483D01*
X112706202Y-105512328D01*
X112706206Y-105512335D01*
X112792452Y-105627544D01*
X112792455Y-105627547D01*
X112907664Y-105713793D01*
X112907671Y-105713797D01*
X113039081Y-105762810D01*
X113095015Y-105804681D01*
X113119432Y-105870145D01*
X113104580Y-105938418D01*
X113083430Y-105966673D01*
X112961503Y-106088600D01*
X112825965Y-106282169D01*
X112825964Y-106282171D01*
X112726098Y-106496335D01*
X112726094Y-106496344D01*
X112664938Y-106724586D01*
X112664936Y-106724596D01*
X112644341Y-106959999D01*
X112644341Y-106960000D01*
X112664936Y-107195403D01*
X112664938Y-107195413D01*
X112726094Y-107423655D01*
X112726096Y-107423659D01*
X112726097Y-107423663D01*
X112784404Y-107548702D01*
X112825965Y-107637830D01*
X112825967Y-107637834D01*
X112961501Y-107831395D01*
X112961506Y-107831402D01*
X113128597Y-107998493D01*
X113128603Y-107998498D01*
X113314594Y-108128730D01*
X113358219Y-108183307D01*
X113365413Y-108252805D01*
X113333890Y-108315160D01*
X113314595Y-108331880D01*
X113128922Y-108461890D01*
X113128920Y-108461891D01*
X112961891Y-108628920D01*
X112961886Y-108628926D01*
X112826400Y-108822420D01*
X112826399Y-108822422D01*
X112726570Y-109036507D01*
X112726567Y-109036513D01*
X112669364Y-109249999D01*
X112669364Y-109250000D01*
X113566314Y-109250000D01*
X113540507Y-109290156D01*
X113500000Y-109428111D01*
X113500000Y-109571889D01*
X113540507Y-109709844D01*
X113566314Y-109750000D01*
X112669364Y-109750000D01*
X112726567Y-109963486D01*
X112726570Y-109963492D01*
X112826399Y-110177578D01*
X112961894Y-110371082D01*
X113128917Y-110538105D01*
X113314595Y-110668119D01*
X113358219Y-110722696D01*
X113365412Y-110792195D01*
X113333890Y-110854549D01*
X113314595Y-110871269D01*
X113128594Y-111001508D01*
X112961505Y-111168597D01*
X112825965Y-111362169D01*
X112825964Y-111362171D01*
X112726098Y-111576335D01*
X112726094Y-111576344D01*
X112664938Y-111804586D01*
X112664936Y-111804596D01*
X112644341Y-112039999D01*
X112644341Y-112040000D01*
X112664936Y-112275403D01*
X112664938Y-112275413D01*
X112726094Y-112503655D01*
X112726096Y-112503659D01*
X112726097Y-112503663D01*
X112739411Y-112532214D01*
X112825965Y-112717830D01*
X112825967Y-112717834D01*
X112961501Y-112911395D01*
X112961506Y-112911402D01*
X113128597Y-113078493D01*
X113128603Y-113078498D01*
X113314158Y-113208425D01*
X113357783Y-113263002D01*
X113364977Y-113332500D01*
X113333454Y-113394855D01*
X113314158Y-113411575D01*
X113128597Y-113541505D01*
X112961505Y-113708597D01*
X112825965Y-113902169D01*
X112825964Y-113902171D01*
X112726098Y-114116335D01*
X112726094Y-114116344D01*
X112664938Y-114344586D01*
X112664936Y-114344596D01*
X112644341Y-114579999D01*
X112644341Y-114580000D01*
X112664936Y-114815403D01*
X112664938Y-114815413D01*
X112726094Y-115043655D01*
X112726096Y-115043659D01*
X112726097Y-115043663D01*
X112821470Y-115248191D01*
X112825965Y-115257830D01*
X112825967Y-115257834D01*
X112961501Y-115451395D01*
X112961506Y-115451402D01*
X113128597Y-115618493D01*
X113128603Y-115618498D01*
X113314158Y-115748425D01*
X113357783Y-115803002D01*
X113364977Y-115872500D01*
X113333454Y-115934855D01*
X113314158Y-115951575D01*
X113128597Y-116081505D01*
X112961505Y-116248597D01*
X112825965Y-116442169D01*
X112825964Y-116442171D01*
X112726098Y-116656335D01*
X112726094Y-116656344D01*
X112664938Y-116884586D01*
X112664936Y-116884596D01*
X112644341Y-117119999D01*
X112644341Y-117120000D01*
X110500500Y-117120000D01*
X110500500Y-100124500D01*
X110520185Y-100057461D01*
X110572989Y-100011706D01*
X110624500Y-100000500D01*
X132375500Y-100000500D01*
X132442539Y-100020185D01*
G37*
%TD.AperFunction*%
%TD*%
M02*
