%TF.GenerationSoftware,KiCad,Pcbnew,7.0.9*%
%TF.CreationDate,2024-04-03T22:09:18+09:00*%
%TF.ProjectId,max31855,6d617833-3138-4353-952e-6b696361645f,rev?*%
%TF.SameCoordinates,Original*%
%TF.FileFunction,Copper,L1,Top*%
%TF.FilePolarity,Positive*%
%FSLAX46Y46*%
G04 Gerber Fmt 4.6, Leading zero omitted, Abs format (unit mm)*
G04 Created by KiCad (PCBNEW 7.0.9) date 2024-04-03 22:09:18*
%MOMM*%
%LPD*%
G01*
G04 APERTURE LIST*
G04 Aperture macros list*
%AMRoundRect*
0 Rectangle with rounded corners*
0 $1 Rounding radius*
0 $2 $3 $4 $5 $6 $7 $8 $9 X,Y pos of 4 corners*
0 Add a 4 corners polygon primitive as box body*
4,1,4,$2,$3,$4,$5,$6,$7,$8,$9,$2,$3,0*
0 Add four circle primitives for the rounded corners*
1,1,$1+$1,$2,$3*
1,1,$1+$1,$4,$5*
1,1,$1+$1,$6,$7*
1,1,$1+$1,$8,$9*
0 Add four rect primitives between the rounded corners*
20,1,$1+$1,$2,$3,$4,$5,0*
20,1,$1+$1,$4,$5,$6,$7,0*
20,1,$1+$1,$6,$7,$8,$9,0*
20,1,$1+$1,$8,$9,$2,$3,0*%
G04 Aperture macros list end*
%TA.AperFunction,SMDPad,CuDef*%
%ADD10RoundRect,0.150000X-0.150000X0.825000X-0.150000X-0.825000X0.150000X-0.825000X0.150000X0.825000X0*%
%TD*%
%TA.AperFunction,SMDPad,CuDef*%
%ADD11RoundRect,0.225000X0.250000X-0.225000X0.250000X0.225000X-0.250000X0.225000X-0.250000X-0.225000X0*%
%TD*%
%TA.AperFunction,SMDPad,CuDef*%
%ADD12RoundRect,0.225000X-0.250000X0.225000X-0.250000X-0.225000X0.250000X-0.225000X0.250000X0.225000X0*%
%TD*%
%TA.AperFunction,ComponentPad*%
%ADD13R,1.350000X1.350000*%
%TD*%
%TA.AperFunction,ComponentPad*%
%ADD14O,1.350000X1.350000*%
%TD*%
%TA.AperFunction,ComponentPad*%
%ADD15R,1.700000X1.700000*%
%TD*%
%TA.AperFunction,ComponentPad*%
%ADD16O,1.700000X1.700000*%
%TD*%
%TA.AperFunction,SMDPad,CuDef*%
%ADD17RoundRect,0.218750X0.256250X-0.218750X0.256250X0.218750X-0.256250X0.218750X-0.256250X-0.218750X0*%
%TD*%
%TA.AperFunction,SMDPad,CuDef*%
%ADD18R,1.100000X0.600000*%
%TD*%
%TA.AperFunction,SMDPad,CuDef*%
%ADD19RoundRect,0.200000X0.275000X-0.200000X0.275000X0.200000X-0.275000X0.200000X-0.275000X-0.200000X0*%
%TD*%
%TA.AperFunction,ViaPad*%
%ADD20C,0.800000*%
%TD*%
%TA.AperFunction,Conductor*%
%ADD21C,0.500000*%
%TD*%
G04 APERTURE END LIST*
D10*
%TO.P,U1,1,GND*%
%TO.N,GND*%
X122905000Y-109025000D03*
%TO.P,U1,2,T-*%
%TO.N,Net-(U1-T-)*%
X121635000Y-109025000D03*
%TO.P,U1,3,T+*%
%TO.N,Net-(U1-T+)*%
X120365000Y-109025000D03*
%TO.P,U1,4,VCC*%
%TO.N,+3.3V*%
X119095000Y-109025000D03*
%TO.P,U1,5,SCK*%
%TO.N,Net-(D2-A)*%
X119095000Y-113975000D03*
%TO.P,U1,6,/CS*%
%TO.N,Net-(D1-A)*%
X120365000Y-113975000D03*
%TO.P,U1,7,DO*%
%TO.N,Net-(J1-Pin_4)*%
X121635000Y-113975000D03*
%TO.P,U1,8*%
%TO.N,N/C*%
X122905000Y-113975000D03*
%TD*%
D11*
%TO.P,FB2,1*%
%TO.N,Net-(U1-T+)*%
X130000000Y-118775000D03*
%TO.P,FB2,2*%
%TO.N,Net-(J2-Pin_2)*%
X130000000Y-117225000D03*
%TD*%
D12*
%TO.P,FB1,1*%
%TO.N,Net-(U1-T-)*%
X130000000Y-102725000D03*
%TO.P,FB1,2*%
%TO.N,Net-(J2-Pin_1)*%
X130000000Y-104275000D03*
%TD*%
%TO.P,C3,1*%
%TO.N,Net-(U1-T-)*%
X127000000Y-111225000D03*
%TO.P,C3,2*%
%TO.N,Net-(U1-T+)*%
X127000000Y-112775000D03*
%TD*%
D11*
%TO.P,C2,1*%
%TO.N,+3.3V*%
X125500000Y-104275000D03*
%TO.P,C2,2*%
%TO.N,GND*%
X125500000Y-102725000D03*
%TD*%
%TO.P,C1,1*%
%TO.N,+3.3V*%
X118000000Y-104275000D03*
%TO.P,C1,2*%
%TO.N,GND*%
X118000000Y-102725000D03*
%TD*%
D13*
%TO.P,J2,1,Pin_1*%
%TO.N,Net-(J2-Pin_1)*%
X130000000Y-110500000D03*
D14*
%TO.P,J2,2,Pin_2*%
%TO.N,Net-(J2-Pin_2)*%
X130000000Y-112500000D03*
%TD*%
D15*
%TO.P,J1,1,Pin_1*%
%TO.N,+5V*%
X114000000Y-104420000D03*
D16*
%TO.P,J1,2,Pin_2*%
%TO.N,+3.3V*%
X114000000Y-106960000D03*
%TO.P,J1,3,Pin_3*%
%TO.N,GND*%
X114000000Y-109500000D03*
%TO.P,J1,4,Pin_4*%
%TO.N,Net-(J1-Pin_4)*%
X114000000Y-112040000D03*
%TO.P,J1,5,Pin_5*%
%TO.N,Net-(D1-K)*%
X114000000Y-114580000D03*
%TO.P,J1,6,Pin_6*%
%TO.N,Net-(D2-K)*%
X114000000Y-117120000D03*
%TD*%
D17*
%TO.P,D2,1,K*%
%TO.N,Net-(D2-K)*%
X121000000Y-118787500D03*
%TO.P,D2,2,A*%
%TO.N,Net-(D2-A)*%
X121000000Y-117212500D03*
%TD*%
%TO.P,D1,1,K*%
%TO.N,Net-(D1-K)*%
X124000000Y-118787500D03*
%TO.P,D1,2,A*%
%TO.N,Net-(D1-A)*%
X124000000Y-117212500D03*
%TD*%
D18*
%TO.P,U2,1,VIN*%
%TO.N,+5V*%
X122770000Y-104293000D03*
%TO.P,U2,2,GND*%
%TO.N,GND*%
X122770000Y-103327800D03*
%TO.P,U2,3,EN*%
%TO.N,+5V*%
X122770000Y-102388000D03*
%TO.P,U2,4,BYP*%
%TO.N,unconnected-(U2-BYP-Pad4)*%
X120179200Y-102388000D03*
%TO.P,U2,5,VOUT*%
%TO.N,+3.3V*%
X120179200Y-104293000D03*
%TD*%
D19*
%TO.P,R2,1*%
%TO.N,Net-(D2-A)*%
X127000000Y-118825000D03*
%TO.P,R2,2*%
%TO.N,GND*%
X127000000Y-117175000D03*
%TD*%
%TO.P,R1,1*%
%TO.N,Net-(D1-A)*%
X118000000Y-118825000D03*
%TO.P,R1,2*%
%TO.N,GND*%
X118000000Y-117175000D03*
%TD*%
D20*
%TO.N,GND*%
X124500000Y-110000000D03*
X117000000Y-111000000D03*
%TO.N,Net-(J1-Pin_4)*%
X120500000Y-112000000D03*
X116500000Y-114000000D03*
%TO.N,Net-(D1-A)*%
X119500000Y-118000000D03*
X123500000Y-116000000D03*
%TO.N,Net-(D2-A)*%
X122500000Y-118500000D03*
X126500000Y-120500000D03*
%TO.N,Net-(U1-T+)*%
X125500000Y-112074500D03*
X120483512Y-107016488D03*
%TD*%
D21*
%TO.N,GND*%
X124500000Y-109550000D02*
X123975000Y-109025000D01*
X124500000Y-110000000D02*
X124500000Y-109550000D01*
%TO.N,Net-(J1-Pin_4)*%
X121635000Y-112635000D02*
X121635000Y-113975000D01*
X121000000Y-112000000D02*
X121635000Y-112635000D01*
X120500000Y-112000000D02*
X121000000Y-112000000D01*
X115960000Y-114000000D02*
X116500000Y-114000000D01*
X114000000Y-112040000D02*
X115960000Y-114000000D01*
%TO.N,Net-(D1-A)*%
X118000000Y-118825000D02*
X118675000Y-118825000D01*
X118675000Y-118825000D02*
X119500000Y-118000000D01*
X120365000Y-114949999D02*
X121415001Y-116000000D01*
X121415001Y-116000000D02*
X123500000Y-116000000D01*
X120365000Y-113975000D02*
X120365000Y-114949999D01*
%TO.N,Net-(D2-A)*%
X122500000Y-118500000D02*
X122500000Y-117500000D01*
X122500000Y-117500000D02*
X122212500Y-117212500D01*
X122212500Y-117212500D02*
X121000000Y-117212500D01*
X127000000Y-120000000D02*
X126500000Y-120500000D01*
X127000000Y-118825000D02*
X127000000Y-120000000D01*
%TO.N,GND*%
X123975000Y-109025000D02*
X125000000Y-108000000D01*
%TO.N,Net-(U1-T+)*%
X126275000Y-112775000D02*
X127000000Y-112775000D01*
X125574500Y-112074500D02*
X126275000Y-112775000D01*
X125500000Y-112074500D02*
X125574500Y-112074500D01*
X120483512Y-107016488D02*
X120365000Y-107135000D01*
X120365000Y-109025000D02*
X120365000Y-107135000D01*
%TO.N,GND*%
X115500000Y-109500000D02*
X114000000Y-109500000D01*
X121500000Y-111000000D02*
X117000000Y-111000000D01*
X117000000Y-111000000D02*
X115500000Y-109500000D01*
X122425000Y-111925000D02*
X121500000Y-111000000D01*
X122925000Y-111925000D02*
X122425000Y-111925000D01*
%TO.N,Net-(D1-K)*%
X112920000Y-114580000D02*
X114000000Y-114580000D01*
X112500000Y-115000000D02*
X112920000Y-114580000D01*
X112500000Y-119000000D02*
X112500000Y-115000000D01*
X114500000Y-121000000D02*
X112500000Y-119000000D01*
X124000000Y-119500000D02*
X122500000Y-121000000D01*
X124000000Y-118787500D02*
X124000000Y-119500000D01*
X122500000Y-121000000D02*
X114500000Y-121000000D01*
%TO.N,Net-(D2-K)*%
X115500000Y-120000000D02*
X114000000Y-118500000D01*
X114000000Y-118500000D02*
X114000000Y-117120000D01*
X121000000Y-119500000D02*
X120500000Y-120000000D01*
X120500000Y-120000000D02*
X115500000Y-120000000D01*
X121000000Y-118787500D02*
X121000000Y-119500000D01*
%TO.N,GND*%
X118000000Y-113500000D02*
X117000000Y-112500000D01*
X118000000Y-117175000D02*
X118000000Y-113500000D01*
X117000000Y-112500000D02*
X117000000Y-111000000D01*
X127000000Y-116000000D02*
X122925000Y-111925000D01*
X127000000Y-117175000D02*
X127000000Y-116000000D01*
%TO.N,Net-(D2-A)*%
X120425051Y-116000000D02*
X121000000Y-116574949D01*
X119500000Y-116000000D02*
X120425051Y-116000000D01*
X119095000Y-115595000D02*
X119500000Y-116000000D01*
X121000000Y-116574949D02*
X121000000Y-117212500D01*
X119095000Y-113975000D02*
X119095000Y-115595000D01*
%TO.N,Net-(D1-A)*%
X124000000Y-116500000D02*
X124000000Y-117212500D01*
X123500000Y-116000000D02*
X124000000Y-116500000D01*
%TO.N,GND*%
X123975000Y-109025000D02*
X122905000Y-109025000D01*
X127000000Y-106000000D02*
X123975000Y-109025000D01*
X126725000Y-102725000D02*
X127000000Y-103000000D01*
X127000000Y-103000000D02*
X127000000Y-106000000D01*
X125500000Y-102725000D02*
X126725000Y-102725000D01*
X124470000Y-104840000D02*
X124470000Y-103755000D01*
X124470000Y-103755000D02*
X125500000Y-102725000D01*
X123810000Y-105500000D02*
X124470000Y-104840000D01*
X121500000Y-105000000D02*
X122000000Y-105500000D01*
X120964000Y-103327800D02*
X121500000Y-103863800D01*
X121500000Y-103863800D02*
X121500000Y-105000000D01*
X120500000Y-103327800D02*
X120964000Y-103327800D01*
X122000000Y-105500000D02*
X123810000Y-105500000D01*
%TO.N,+3.3V*%
X123799949Y-106500000D02*
X121168400Y-106500000D01*
X125500000Y-104799949D02*
X123799949Y-106500000D01*
X121168400Y-106500000D02*
X120179200Y-105510800D01*
X125500000Y-104275000D02*
X125500000Y-104799949D01*
%TO.N,Net-(U1-T-)*%
X122860001Y-111225000D02*
X127000000Y-111225000D01*
X121635000Y-109999999D02*
X122860001Y-111225000D01*
X121635000Y-109025000D02*
X121635000Y-109999999D01*
X128500000Y-108000000D02*
X128500000Y-103500000D01*
X127000000Y-109500000D02*
X128500000Y-108000000D01*
X128500000Y-103500000D02*
X129275000Y-102725000D01*
X129275000Y-102725000D02*
X130000000Y-102725000D01*
X127000000Y-111225000D02*
X127000000Y-109500000D01*
%TO.N,Net-(U1-T+)*%
X127000000Y-114000000D02*
X127000000Y-112775000D01*
X128500000Y-115500000D02*
X127000000Y-114000000D01*
X129275000Y-118775000D02*
X128500000Y-118000000D01*
X128500000Y-118000000D02*
X128500000Y-115500000D01*
X130000000Y-118775000D02*
X129275000Y-118775000D01*
%TO.N,Net-(J2-Pin_2)*%
X130000000Y-112500000D02*
X130000000Y-117225000D01*
%TO.N,Net-(J2-Pin_1)*%
X130000000Y-104275000D02*
X130000000Y-110500000D01*
%TO.N,+5V*%
X122000000Y-101000000D02*
X122770000Y-101770000D01*
X117500000Y-101000000D02*
X122000000Y-101000000D01*
X122770000Y-101770000D02*
X122770000Y-102388000D01*
X116500000Y-103500000D02*
X116500000Y-102000000D01*
X116500000Y-102000000D02*
X117500000Y-101000000D01*
X115580000Y-104420000D02*
X116500000Y-103500000D01*
X114000000Y-104420000D02*
X115580000Y-104420000D01*
%TO.N,GND*%
X118602800Y-103327800D02*
X120500000Y-103327800D01*
X120500000Y-103327800D02*
X122770000Y-103327800D01*
%TO.N,+5V*%
X123770000Y-104077800D02*
X123770000Y-102577800D01*
X123770000Y-102577800D02*
X123580200Y-102388000D01*
X123580200Y-102388000D02*
X122770000Y-102388000D01*
X123554800Y-104293000D02*
X123770000Y-104077800D01*
X122770000Y-104293000D02*
X123554800Y-104293000D01*
%TO.N,+3.3V*%
X120179200Y-105510800D02*
X119095000Y-106595000D01*
X120179200Y-104293000D02*
X120179200Y-105510800D01*
X119095000Y-106595000D02*
X119095000Y-109025000D01*
X118000000Y-105000000D02*
X118000000Y-105500000D01*
X118000000Y-105500000D02*
X119095000Y-106595000D01*
X118000000Y-105000000D02*
X118000000Y-104275000D01*
X116040000Y-106960000D02*
X118000000Y-105000000D01*
X114000000Y-106960000D02*
X116040000Y-106960000D01*
%TO.N,GND*%
X118000000Y-102725000D02*
X118602800Y-103327800D01*
%TD*%
%TA.AperFunction,Conductor*%
%TO.N,+5V*%
G36*
X132442539Y-100020185D02*
G01*
X132488294Y-100072989D01*
X132499500Y-100124500D01*
X132499500Y-121875500D01*
X132479815Y-121942539D01*
X132427011Y-121988294D01*
X132375500Y-121999500D01*
X122526747Y-121999500D01*
X122484875Y-121987204D01*
X122460445Y-121998284D01*
X122443122Y-121999500D01*
X114478335Y-121999500D01*
X114447834Y-121990544D01*
X114425658Y-121999084D01*
X114415504Y-121999500D01*
X110624500Y-121999500D01*
X110557461Y-121979815D01*
X110511706Y-121927011D01*
X110500500Y-121875500D01*
X110500500Y-118978025D01*
X111744710Y-118978025D01*
X111749264Y-119030064D01*
X111749500Y-119035470D01*
X111749500Y-119043709D01*
X111753306Y-119076274D01*
X111760000Y-119152791D01*
X111761461Y-119159867D01*
X111761403Y-119159878D01*
X111763034Y-119167237D01*
X111763092Y-119167224D01*
X111764757Y-119174250D01*
X111791025Y-119246424D01*
X111815185Y-119319331D01*
X111818236Y-119325874D01*
X111818182Y-119325898D01*
X111821470Y-119332688D01*
X111821521Y-119332663D01*
X111824761Y-119339113D01*
X111824762Y-119339114D01*
X111824763Y-119339117D01*
X111843644Y-119367824D01*
X111866965Y-119403283D01*
X111907287Y-119468655D01*
X111911766Y-119474319D01*
X111911719Y-119474356D01*
X111916482Y-119480202D01*
X111916528Y-119480164D01*
X111921173Y-119485700D01*
X111977018Y-119538386D01*
X113924267Y-121485634D01*
X113936048Y-121499266D01*
X113950390Y-121518530D01*
X113990420Y-121552119D01*
X113994392Y-121555759D01*
X114000223Y-121561590D01*
X114000222Y-121561590D01*
X114022027Y-121578830D01*
X114025944Y-121581927D01*
X114084786Y-121631302D01*
X114084794Y-121631306D01*
X114090824Y-121635273D01*
X114090790Y-121635323D01*
X114097147Y-121639372D01*
X114097179Y-121639321D01*
X114103319Y-121643108D01*
X114103323Y-121643111D01*
X114138132Y-121659343D01*
X114172941Y-121675575D01*
X114191336Y-121684813D01*
X114241567Y-121710040D01*
X114241569Y-121710040D01*
X114248357Y-121712511D01*
X114248336Y-121712567D01*
X114255455Y-121715042D01*
X114255474Y-121714986D01*
X114262323Y-121717256D01*
X114262326Y-121717256D01*
X114262327Y-121717257D01*
X114337550Y-121732788D01*
X114412279Y-121750500D01*
X114419452Y-121751339D01*
X114419445Y-121751397D01*
X114435736Y-121753062D01*
X114440579Y-121754062D01*
X114444787Y-121756302D01*
X114474725Y-121751552D01*
X114510898Y-121750500D01*
X122436295Y-121750500D01*
X122454264Y-121751808D01*
X122461093Y-121752809D01*
X122482367Y-121762592D01*
X122491812Y-121756523D01*
X122515939Y-121751972D01*
X122518636Y-121751735D01*
X122530069Y-121750735D01*
X122535470Y-121750500D01*
X122543704Y-121750500D01*
X122543709Y-121750500D01*
X122555327Y-121749141D01*
X122576276Y-121746693D01*
X122589028Y-121745577D01*
X122652797Y-121739999D01*
X122652805Y-121739996D01*
X122659866Y-121738539D01*
X122659878Y-121738598D01*
X122667243Y-121736965D01*
X122667229Y-121736906D01*
X122674246Y-121735241D01*
X122674255Y-121735241D01*
X122746423Y-121708974D01*
X122819334Y-121684814D01*
X122819343Y-121684807D01*
X122825882Y-121681760D01*
X122825908Y-121681816D01*
X122832690Y-121678532D01*
X122832663Y-121678478D01*
X122839106Y-121675240D01*
X122839117Y-121675237D01*
X122903283Y-121633034D01*
X122968656Y-121592712D01*
X122968662Y-121592705D01*
X122974325Y-121588229D01*
X122974362Y-121588277D01*
X122980204Y-121583518D01*
X122980164Y-121583471D01*
X122985686Y-121578836D01*
X122985696Y-121578830D01*
X123010904Y-121552111D01*
X123038386Y-121522982D01*
X124234309Y-120327057D01*
X124485638Y-120075727D01*
X124499267Y-120063950D01*
X124518530Y-120049610D01*
X124518532Y-120049606D01*
X124518534Y-120049606D01*
X124536663Y-120027999D01*
X124552113Y-120009585D01*
X124555767Y-120005599D01*
X124561589Y-119999778D01*
X124581928Y-119974054D01*
X124587189Y-119967784D01*
X124631302Y-119915214D01*
X124631304Y-119915209D01*
X124635272Y-119909179D01*
X124635323Y-119909212D01*
X124639369Y-119902860D01*
X124639317Y-119902828D01*
X124643109Y-119896679D01*
X124643111Y-119896677D01*
X124675569Y-119827069D01*
X124710040Y-119758433D01*
X124710043Y-119758417D01*
X124712510Y-119751644D01*
X124712568Y-119751665D01*
X124715043Y-119744546D01*
X124714985Y-119744527D01*
X124717256Y-119737672D01*
X124719770Y-119725499D01*
X124732784Y-119662467D01*
X124750500Y-119587721D01*
X124750500Y-119587720D01*
X124751339Y-119580548D01*
X124751397Y-119580554D01*
X124752163Y-119573061D01*
X124752103Y-119573056D01*
X124752530Y-119568173D01*
X124752709Y-119567712D01*
X124753063Y-119564258D01*
X124754195Y-119558777D01*
X124756054Y-119559161D01*
X124777980Y-119503103D01*
X124788379Y-119491293D01*
X124805353Y-119474319D01*
X124824281Y-119455391D01*
X124912549Y-119312287D01*
X124965436Y-119152685D01*
X124975500Y-119054174D01*
X124975500Y-118520826D01*
X124965436Y-118422315D01*
X124912549Y-118262713D01*
X124912545Y-118262707D01*
X124912544Y-118262704D01*
X124824283Y-118119612D01*
X124824280Y-118119608D01*
X124792353Y-118087681D01*
X124758868Y-118026358D01*
X124763852Y-117956666D01*
X124792353Y-117912319D01*
X124801632Y-117903040D01*
X124824281Y-117880391D01*
X124912549Y-117737287D01*
X124965436Y-117577685D01*
X124975500Y-117479174D01*
X124975500Y-116945826D01*
X124965436Y-116847315D01*
X124912549Y-116687713D01*
X124912545Y-116687707D01*
X124912544Y-116687704D01*
X124824283Y-116544612D01*
X124824280Y-116544608D01*
X124782900Y-116503228D01*
X124749415Y-116441905D01*
X124747418Y-116429930D01*
X124746692Y-116423717D01*
X124746640Y-116423126D01*
X124742700Y-116378089D01*
X124739999Y-116347200D01*
X124738539Y-116340129D01*
X124738597Y-116340116D01*
X124736965Y-116332757D01*
X124736906Y-116332772D01*
X124735242Y-116325753D01*
X124735241Y-116325745D01*
X124708974Y-116253576D01*
X124684814Y-116180666D01*
X124684809Y-116180659D01*
X124681760Y-116174118D01*
X124681815Y-116174091D01*
X124678533Y-116167313D01*
X124678480Y-116167340D01*
X124675235Y-116160880D01*
X124633028Y-116096708D01*
X124592710Y-116031342D01*
X124588234Y-116025682D01*
X124588281Y-116025644D01*
X124583519Y-116019799D01*
X124583474Y-116019838D01*
X124578834Y-116014309D01*
X124578832Y-116014307D01*
X124578830Y-116014304D01*
X124548061Y-115985275D01*
X124522966Y-115961598D01*
X124458365Y-115896998D01*
X124412768Y-115851401D01*
X124382522Y-115802043D01*
X124327179Y-115631716D01*
X124232533Y-115467784D01*
X124105871Y-115327112D01*
X124105870Y-115327111D01*
X123952734Y-115215851D01*
X123952729Y-115215848D01*
X123779807Y-115138857D01*
X123779800Y-115138854D01*
X123772952Y-115137399D01*
X123711471Y-115104204D01*
X123677697Y-115043039D01*
X123679662Y-114981514D01*
X123680668Y-114978052D01*
X123702598Y-114902569D01*
X123705500Y-114865694D01*
X123705500Y-114066229D01*
X123725185Y-113999190D01*
X123777989Y-113953435D01*
X123847147Y-113943491D01*
X123910703Y-113972516D01*
X123917181Y-113978548D01*
X126213181Y-116274548D01*
X126246666Y-116335871D01*
X126249500Y-116362229D01*
X126249500Y-116408480D01*
X126229815Y-116475519D01*
X126213181Y-116496161D01*
X126169531Y-116539810D01*
X126169530Y-116539811D01*
X126081522Y-116685393D01*
X126030913Y-116847807D01*
X126024500Y-116918386D01*
X126024500Y-117431613D01*
X126030913Y-117502192D01*
X126030913Y-117502194D01*
X126030914Y-117502196D01*
X126081522Y-117664606D01*
X126138400Y-117758694D01*
X126169530Y-117810188D01*
X126271661Y-117912319D01*
X126305146Y-117973642D01*
X126300162Y-118043334D01*
X126271661Y-118087681D01*
X126169531Y-118189810D01*
X126169530Y-118189811D01*
X126081522Y-118335393D01*
X126030913Y-118497807D01*
X126024500Y-118568386D01*
X126024500Y-119081613D01*
X126030913Y-119152192D01*
X126030913Y-119152194D01*
X126030914Y-119152196D01*
X126081522Y-119314606D01*
X126136954Y-119406302D01*
X126169530Y-119460188D01*
X126181188Y-119471846D01*
X126214673Y-119533169D01*
X126209689Y-119602861D01*
X126167817Y-119658794D01*
X126143944Y-119672806D01*
X126047267Y-119715850D01*
X126047265Y-119715851D01*
X125894129Y-119827111D01*
X125767466Y-119967785D01*
X125672821Y-120131715D01*
X125672818Y-120131722D01*
X125614327Y-120311740D01*
X125614326Y-120311744D01*
X125594540Y-120500000D01*
X125614326Y-120688256D01*
X125614327Y-120688259D01*
X125672818Y-120868277D01*
X125672821Y-120868284D01*
X125767467Y-121032216D01*
X125894129Y-121172888D01*
X126047265Y-121284148D01*
X126047270Y-121284151D01*
X126220192Y-121361142D01*
X126220197Y-121361144D01*
X126405354Y-121400500D01*
X126405355Y-121400500D01*
X126594644Y-121400500D01*
X126594646Y-121400500D01*
X126779803Y-121361144D01*
X126952730Y-121284151D01*
X127105871Y-121172888D01*
X127232533Y-121032216D01*
X127327179Y-120868284D01*
X127382522Y-120697955D01*
X127412769Y-120648597D01*
X127485642Y-120575724D01*
X127499271Y-120563947D01*
X127518530Y-120549610D01*
X127552101Y-120509601D01*
X127555761Y-120505606D01*
X127561590Y-120499778D01*
X127581941Y-120474039D01*
X127587948Y-120466879D01*
X127631302Y-120415214D01*
X127631306Y-120415205D01*
X127635274Y-120409175D01*
X127635325Y-120409208D01*
X127639372Y-120402856D01*
X127639320Y-120402824D01*
X127643112Y-120396675D01*
X127675575Y-120327058D01*
X127710036Y-120258440D01*
X127710040Y-120258433D01*
X127710042Y-120258421D01*
X127712509Y-120251646D01*
X127712567Y-120251667D01*
X127715043Y-120244546D01*
X127714986Y-120244528D01*
X127717257Y-120237673D01*
X127732792Y-120162434D01*
X127740071Y-120131722D01*
X127750500Y-120087721D01*
X127750500Y-120087710D01*
X127751338Y-120080548D01*
X127751398Y-120080555D01*
X127752164Y-120073055D01*
X127752105Y-120073050D01*
X127752734Y-120065860D01*
X127752678Y-120063950D01*
X127750500Y-119989082D01*
X127750500Y-119591519D01*
X127770185Y-119524480D01*
X127786820Y-119503837D01*
X127805618Y-119485039D01*
X127830472Y-119460185D01*
X127918478Y-119314606D01*
X127969086Y-119152196D01*
X127975500Y-119081616D01*
X127975500Y-118836230D01*
X127995185Y-118769191D01*
X128047989Y-118723436D01*
X128117147Y-118713492D01*
X128180703Y-118742517D01*
X128187181Y-118748549D01*
X128699268Y-119260635D01*
X128711050Y-119274268D01*
X128718407Y-119284151D01*
X128725390Y-119293530D01*
X128765420Y-119327119D01*
X128769392Y-119330759D01*
X128774071Y-119335438D01*
X128775224Y-119336591D01*
X128775227Y-119336594D01*
X128800947Y-119356931D01*
X128859788Y-119406304D01*
X128865818Y-119410270D01*
X128865785Y-119410319D01*
X128872143Y-119414369D01*
X128872175Y-119414319D01*
X128878320Y-119418109D01*
X128878323Y-119418111D01*
X128947936Y-119450572D01*
X129016567Y-119485040D01*
X129016572Y-119485041D01*
X129023361Y-119487513D01*
X129023340Y-119487570D01*
X129030455Y-119490043D01*
X129030475Y-119489986D01*
X129037330Y-119492258D01*
X129112558Y-119507790D01*
X129187279Y-119525500D01*
X129187289Y-119525500D01*
X129194452Y-119526338D01*
X129194444Y-119526397D01*
X129201943Y-119527164D01*
X129201949Y-119527105D01*
X129210843Y-119527883D01*
X129211936Y-119528310D01*
X129216219Y-119529195D01*
X129216067Y-119529926D01*
X129275912Y-119553334D01*
X129287718Y-119563730D01*
X129296955Y-119572967D01*
X129296959Y-119572970D01*
X129441294Y-119661998D01*
X129441297Y-119661999D01*
X129441303Y-119662003D01*
X129602292Y-119715349D01*
X129701655Y-119725500D01*
X130298344Y-119725499D01*
X130298352Y-119725498D01*
X130298355Y-119725498D01*
X130352760Y-119719940D01*
X130397708Y-119715349D01*
X130558697Y-119662003D01*
X130703044Y-119572968D01*
X130822968Y-119453044D01*
X130912003Y-119308697D01*
X130965349Y-119147708D01*
X130975500Y-119048345D01*
X130975499Y-118501656D01*
X130965349Y-118402292D01*
X130912003Y-118241303D01*
X130911999Y-118241297D01*
X130911998Y-118241294D01*
X130822970Y-118096959D01*
X130822967Y-118096955D01*
X130813693Y-118087681D01*
X130780208Y-118026358D01*
X130785192Y-117956666D01*
X130813693Y-117912319D01*
X130822968Y-117903044D01*
X130912003Y-117758697D01*
X130965349Y-117597708D01*
X130975500Y-117498345D01*
X130975499Y-116951656D01*
X130974903Y-116945826D01*
X130965349Y-116852292D01*
X130965348Y-116852289D01*
X130943827Y-116787342D01*
X130912003Y-116691303D01*
X130911999Y-116691297D01*
X130911998Y-116691294D01*
X130822970Y-116546959D01*
X130822967Y-116546955D01*
X130786819Y-116510807D01*
X130753334Y-116449484D01*
X130750500Y-116423126D01*
X130750500Y-113461224D01*
X130770185Y-113394185D01*
X130790962Y-113369587D01*
X130837556Y-113327111D01*
X130872427Y-113295322D01*
X131003712Y-113121472D01*
X131100817Y-112926459D01*
X131160435Y-112716923D01*
X131180536Y-112500000D01*
X131160435Y-112283077D01*
X131100817Y-112073541D01*
X131003712Y-111878528D01*
X130922251Y-111770656D01*
X130897560Y-111705297D01*
X130912125Y-111636962D01*
X130946895Y-111596665D01*
X130994545Y-111560993D01*
X131032546Y-111532546D01*
X131118796Y-111417331D01*
X131169091Y-111282483D01*
X131175500Y-111222873D01*
X131175499Y-109777128D01*
X131169091Y-109717517D01*
X131137089Y-109631716D01*
X131118797Y-109582671D01*
X131118793Y-109582664D01*
X131032547Y-109467455D01*
X131032544Y-109467452D01*
X130917335Y-109381206D01*
X130917330Y-109381203D01*
X130831166Y-109349066D01*
X130775233Y-109307194D01*
X130750816Y-109241730D01*
X130750500Y-109232884D01*
X130750500Y-105076874D01*
X130770185Y-105009835D01*
X130786819Y-104989193D01*
X130788731Y-104987281D01*
X130822968Y-104953044D01*
X130912003Y-104808697D01*
X130965349Y-104647708D01*
X130975500Y-104548345D01*
X130975499Y-104001656D01*
X130965349Y-103902292D01*
X130912003Y-103741303D01*
X130911999Y-103741297D01*
X130911998Y-103741294D01*
X130822970Y-103596959D01*
X130822967Y-103596955D01*
X130813693Y-103587681D01*
X130780208Y-103526358D01*
X130785192Y-103456666D01*
X130813693Y-103412319D01*
X130817953Y-103408059D01*
X130822968Y-103403044D01*
X130912003Y-103258697D01*
X130965349Y-103097708D01*
X130975500Y-102998345D01*
X130975499Y-102451656D01*
X130965349Y-102352292D01*
X130912003Y-102191303D01*
X130911999Y-102191297D01*
X130911998Y-102191294D01*
X130822970Y-102046959D01*
X130822967Y-102046955D01*
X130703044Y-101927032D01*
X130703040Y-101927029D01*
X130558705Y-101838001D01*
X130558699Y-101837998D01*
X130558697Y-101837997D01*
X130558694Y-101837996D01*
X130397709Y-101784651D01*
X130298346Y-101774500D01*
X129701662Y-101774500D01*
X129701644Y-101774501D01*
X129602292Y-101784650D01*
X129602289Y-101784651D01*
X129441305Y-101837996D01*
X129441294Y-101838001D01*
X129296956Y-101927030D01*
X129296951Y-101927034D01*
X129282370Y-101941616D01*
X129221046Y-101975100D01*
X129209091Y-101977094D01*
X129203310Y-101977770D01*
X129198724Y-101978306D01*
X129165929Y-101981175D01*
X129122199Y-101985001D01*
X129115132Y-101986460D01*
X129115120Y-101986404D01*
X129107763Y-101988035D01*
X129107777Y-101988092D01*
X129100743Y-101989759D01*
X129028575Y-102016025D01*
X128955675Y-102040181D01*
X128949126Y-102043236D01*
X128949101Y-102043183D01*
X128942308Y-102046471D01*
X128942334Y-102046523D01*
X128935880Y-102049764D01*
X128871708Y-102091971D01*
X128806347Y-102132285D01*
X128800683Y-102136765D01*
X128800647Y-102136719D01*
X128794798Y-102141484D01*
X128794835Y-102141528D01*
X128789310Y-102146164D01*
X128789304Y-102146169D01*
X128789304Y-102146170D01*
X128739366Y-102199100D01*
X128736598Y-102202034D01*
X128014358Y-102924272D01*
X128000729Y-102936051D01*
X127981469Y-102950390D01*
X127963398Y-102971926D01*
X127905225Y-103010627D01*
X127835364Y-103011734D01*
X127775995Y-102974895D01*
X127745967Y-102911807D01*
X127744882Y-102903023D01*
X127739999Y-102847201D01*
X127738539Y-102840129D01*
X127738597Y-102840116D01*
X127736965Y-102832757D01*
X127736906Y-102832772D01*
X127735242Y-102825753D01*
X127735241Y-102825745D01*
X127708974Y-102753576D01*
X127684814Y-102680666D01*
X127684809Y-102680659D01*
X127681760Y-102674118D01*
X127681815Y-102674091D01*
X127678533Y-102667313D01*
X127678480Y-102667340D01*
X127675235Y-102660880D01*
X127633028Y-102596708D01*
X127592710Y-102531342D01*
X127588234Y-102525682D01*
X127588281Y-102525644D01*
X127583519Y-102519799D01*
X127583474Y-102519838D01*
X127578834Y-102514309D01*
X127578832Y-102514307D01*
X127578830Y-102514304D01*
X127548062Y-102485276D01*
X127522967Y-102461599D01*
X127300731Y-102239364D01*
X127288948Y-102225730D01*
X127274611Y-102206472D01*
X127274610Y-102206470D01*
X127234593Y-102172892D01*
X127230605Y-102169238D01*
X127224781Y-102163413D01*
X127224780Y-102163412D01*
X127224777Y-102163409D01*
X127202975Y-102146170D01*
X127199041Y-102143059D01*
X127154144Y-102105387D01*
X127140214Y-102093698D01*
X127140210Y-102093696D01*
X127140209Y-102093695D01*
X127134180Y-102089729D01*
X127134212Y-102089680D01*
X127127853Y-102085628D01*
X127127822Y-102085679D01*
X127121680Y-102081891D01*
X127121678Y-102081890D01*
X127121677Y-102081889D01*
X127082474Y-102063608D01*
X127052058Y-102049424D01*
X127017894Y-102032267D01*
X126983433Y-102014960D01*
X126983431Y-102014959D01*
X126983430Y-102014959D01*
X126976645Y-102012489D01*
X126976665Y-102012433D01*
X126969549Y-102009959D01*
X126969531Y-102010015D01*
X126962671Y-102007742D01*
X126934841Y-102001996D01*
X126887434Y-101992207D01*
X126838092Y-101980513D01*
X126812719Y-101974499D01*
X126805547Y-101973661D01*
X126805553Y-101973601D01*
X126798055Y-101972835D01*
X126798050Y-101972895D01*
X126790860Y-101972265D01*
X126714083Y-101974500D01*
X126301874Y-101974500D01*
X126234835Y-101954815D01*
X126214193Y-101938181D01*
X126203044Y-101927032D01*
X126203040Y-101927029D01*
X126058705Y-101838001D01*
X126058699Y-101837998D01*
X126058697Y-101837997D01*
X126058694Y-101837996D01*
X125897709Y-101784651D01*
X125798346Y-101774500D01*
X125201662Y-101774500D01*
X125201644Y-101774501D01*
X125102292Y-101784650D01*
X125102289Y-101784651D01*
X124941305Y-101837996D01*
X124941294Y-101838001D01*
X124796959Y-101927029D01*
X124796955Y-101927032D01*
X124677032Y-102046955D01*
X124677029Y-102046959D01*
X124588001Y-102191294D01*
X124587996Y-102191305D01*
X124534651Y-102352290D01*
X124524500Y-102451647D01*
X124524500Y-102587769D01*
X124504815Y-102654808D01*
X124488181Y-102675450D01*
X124032180Y-103131451D01*
X123970857Y-103164936D01*
X123901165Y-103159952D01*
X123845232Y-103118080D01*
X123820815Y-103052616D01*
X123820499Y-103043770D01*
X123820499Y-102979929D01*
X123820498Y-102979923D01*
X123819638Y-102971926D01*
X123814091Y-102920317D01*
X123806705Y-102900516D01*
X123801722Y-102830827D01*
X123806707Y-102813848D01*
X123813598Y-102795372D01*
X123819999Y-102735844D01*
X123820000Y-102735827D01*
X123820000Y-102040172D01*
X123819999Y-102040155D01*
X123813598Y-101980627D01*
X123813597Y-101980623D01*
X123763351Y-101845908D01*
X123721520Y-101790030D01*
X123020571Y-102490981D01*
X122959248Y-102524466D01*
X122932890Y-102527300D01*
X122607109Y-102527300D01*
X122540070Y-102507615D01*
X122519428Y-102490981D01*
X121818477Y-101790030D01*
X121776647Y-101845910D01*
X121776645Y-101845913D01*
X121726403Y-101980620D01*
X121726401Y-101980627D01*
X121720000Y-102040155D01*
X121720000Y-102453300D01*
X121700315Y-102520339D01*
X121647511Y-102566094D01*
X121596000Y-102577300D01*
X121353700Y-102577300D01*
X121286661Y-102557615D01*
X121240906Y-102504811D01*
X121229700Y-102453300D01*
X121229699Y-102040129D01*
X121229698Y-102040123D01*
X121226993Y-102014960D01*
X121224499Y-101991757D01*
X121223291Y-101980516D01*
X121172997Y-101845671D01*
X121172993Y-101845664D01*
X121086747Y-101730455D01*
X121086744Y-101730452D01*
X120971535Y-101644206D01*
X120971528Y-101644202D01*
X120836682Y-101593908D01*
X120836683Y-101593908D01*
X120781725Y-101588000D01*
X122323552Y-101588000D01*
X122770000Y-102034447D01*
X123216447Y-101588000D01*
X122323552Y-101588000D01*
X120781725Y-101588000D01*
X120777083Y-101587501D01*
X120777081Y-101587500D01*
X120777073Y-101587500D01*
X120777064Y-101587500D01*
X119581329Y-101587500D01*
X119581323Y-101587501D01*
X119521716Y-101593908D01*
X119386871Y-101644202D01*
X119386864Y-101644206D01*
X119271655Y-101730452D01*
X119271652Y-101730455D01*
X119185406Y-101845664D01*
X119185402Y-101845671D01*
X119135110Y-101980513D01*
X119135109Y-101980517D01*
X119128700Y-102040127D01*
X119128700Y-102040134D01*
X119128700Y-102040135D01*
X119128700Y-102105387D01*
X119109015Y-102172426D01*
X119056211Y-102218181D01*
X118987053Y-102228125D01*
X118923497Y-102199100D01*
X118899162Y-102170484D01*
X118822970Y-102046959D01*
X118822967Y-102046955D01*
X118703044Y-101927032D01*
X118703040Y-101927029D01*
X118558705Y-101838001D01*
X118558699Y-101837998D01*
X118558697Y-101837997D01*
X118558694Y-101837996D01*
X118397709Y-101784651D01*
X118298346Y-101774500D01*
X117701662Y-101774500D01*
X117701644Y-101774501D01*
X117602292Y-101784650D01*
X117602289Y-101784651D01*
X117441305Y-101837996D01*
X117441294Y-101838001D01*
X117296959Y-101927029D01*
X117296955Y-101927032D01*
X117177032Y-102046955D01*
X117177029Y-102046959D01*
X117088001Y-102191294D01*
X117087996Y-102191305D01*
X117034651Y-102352290D01*
X117024500Y-102451647D01*
X117024500Y-102998337D01*
X117024501Y-102998355D01*
X117034650Y-103097707D01*
X117034651Y-103097710D01*
X117087996Y-103258694D01*
X117088001Y-103258705D01*
X117177029Y-103403040D01*
X117177032Y-103403044D01*
X117186307Y-103412319D01*
X117219792Y-103473642D01*
X117214808Y-103543334D01*
X117186307Y-103587681D01*
X117177032Y-103596955D01*
X117177029Y-103596959D01*
X117088001Y-103741294D01*
X117087996Y-103741305D01*
X117034651Y-103902290D01*
X117024500Y-104001647D01*
X117024500Y-104548337D01*
X117024501Y-104548355D01*
X117034650Y-104647707D01*
X117034651Y-104647710D01*
X117074377Y-104767594D01*
X117076779Y-104837422D01*
X117044352Y-104894279D01*
X115765451Y-106173181D01*
X115704128Y-106206666D01*
X115677770Y-106209500D01*
X115187701Y-106209500D01*
X115120662Y-106189815D01*
X115086126Y-106156623D01*
X115038496Y-106088600D01*
X115038495Y-106088599D01*
X114916179Y-105966283D01*
X114882696Y-105904963D01*
X114887680Y-105835271D01*
X114929551Y-105779337D01*
X114960529Y-105762422D01*
X115092086Y-105713354D01*
X115092093Y-105713350D01*
X115207187Y-105627190D01*
X115207190Y-105627187D01*
X115293350Y-105512093D01*
X115293354Y-105512086D01*
X115343596Y-105377379D01*
X115343598Y-105377372D01*
X115349999Y-105317844D01*
X115350000Y-105317827D01*
X115350000Y-104670000D01*
X114433686Y-104670000D01*
X114459493Y-104629844D01*
X114500000Y-104491889D01*
X114500000Y-104348111D01*
X114459493Y-104210156D01*
X114433686Y-104170000D01*
X115350000Y-104170000D01*
X115350000Y-103522172D01*
X115349999Y-103522155D01*
X115343598Y-103462627D01*
X115343596Y-103462620D01*
X115293354Y-103327913D01*
X115293350Y-103327906D01*
X115207190Y-103212812D01*
X115207187Y-103212809D01*
X115092093Y-103126649D01*
X115092086Y-103126645D01*
X114957379Y-103076403D01*
X114957372Y-103076401D01*
X114897844Y-103070000D01*
X114250000Y-103070000D01*
X114250000Y-103984498D01*
X114142315Y-103935320D01*
X114035763Y-103920000D01*
X113964237Y-103920000D01*
X113857685Y-103935320D01*
X113750000Y-103984498D01*
X113750000Y-103070000D01*
X113102155Y-103070000D01*
X113042627Y-103076401D01*
X113042620Y-103076403D01*
X112907913Y-103126645D01*
X112907906Y-103126649D01*
X112792812Y-103212809D01*
X112792809Y-103212812D01*
X112706649Y-103327906D01*
X112706645Y-103327913D01*
X112656403Y-103462620D01*
X112656401Y-103462627D01*
X112650000Y-103522155D01*
X112650000Y-104170000D01*
X113566314Y-104170000D01*
X113540507Y-104210156D01*
X113500000Y-104348111D01*
X113500000Y-104491889D01*
X113540507Y-104629844D01*
X113566314Y-104670000D01*
X112650000Y-104670000D01*
X112650000Y-105317844D01*
X112656401Y-105377372D01*
X112656403Y-105377379D01*
X112706645Y-105512086D01*
X112706649Y-105512093D01*
X112792809Y-105627187D01*
X112792812Y-105627190D01*
X112907906Y-105713350D01*
X112907913Y-105713354D01*
X113039470Y-105762421D01*
X113095403Y-105804292D01*
X113119821Y-105869756D01*
X113104970Y-105938029D01*
X113083819Y-105966284D01*
X112961503Y-106088600D01*
X112825965Y-106282169D01*
X112825964Y-106282171D01*
X112736494Y-106474040D01*
X112726479Y-106495519D01*
X112726098Y-106496335D01*
X112726094Y-106496344D01*
X112664938Y-106724586D01*
X112664936Y-106724596D01*
X112644341Y-106959999D01*
X112644341Y-106960000D01*
X112664936Y-107195403D01*
X112664938Y-107195413D01*
X112726094Y-107423655D01*
X112726096Y-107423659D01*
X112726097Y-107423663D01*
X112782630Y-107544898D01*
X112825965Y-107637830D01*
X112825967Y-107637834D01*
X112961501Y-107831395D01*
X112961506Y-107831402D01*
X113128597Y-107998493D01*
X113128603Y-107998498D01*
X113314158Y-108128425D01*
X113357783Y-108183002D01*
X113364977Y-108252500D01*
X113333454Y-108314855D01*
X113314158Y-108331575D01*
X113128597Y-108461505D01*
X112961505Y-108628597D01*
X112825965Y-108822169D01*
X112825964Y-108822171D01*
X112726098Y-109036335D01*
X112726094Y-109036344D01*
X112664938Y-109264586D01*
X112664936Y-109264596D01*
X112644341Y-109499999D01*
X112644341Y-109500000D01*
X112664936Y-109735403D01*
X112664938Y-109735413D01*
X112726094Y-109963655D01*
X112726096Y-109963659D01*
X112726097Y-109963663D01*
X112785431Y-110090905D01*
X112825965Y-110177830D01*
X112825967Y-110177834D01*
X112898853Y-110281925D01*
X112959322Y-110368284D01*
X112961501Y-110371395D01*
X112961506Y-110371402D01*
X113128597Y-110538493D01*
X113128603Y-110538498D01*
X113314158Y-110668425D01*
X113357783Y-110723002D01*
X113364977Y-110792500D01*
X113333454Y-110854855D01*
X113314158Y-110871575D01*
X113128597Y-111001505D01*
X112961505Y-111168597D01*
X112825965Y-111362169D01*
X112825964Y-111362171D01*
X112726098Y-111576335D01*
X112726094Y-111576344D01*
X112664938Y-111804586D01*
X112664936Y-111804596D01*
X112644341Y-112039999D01*
X112644341Y-112040000D01*
X112664936Y-112275403D01*
X112664938Y-112275413D01*
X112726094Y-112503655D01*
X112726096Y-112503659D01*
X112726097Y-112503663D01*
X112800531Y-112663286D01*
X112825965Y-112717830D01*
X112825967Y-112717834D01*
X112961501Y-112911395D01*
X112961506Y-112911402D01*
X113128597Y-113078493D01*
X113128603Y-113078498D01*
X113314158Y-113208425D01*
X113357783Y-113263002D01*
X113364977Y-113332500D01*
X113333454Y-113394855D01*
X113314158Y-113411575D01*
X113128597Y-113541505D01*
X112961505Y-113708597D01*
X112909338Y-113783101D01*
X112854761Y-113826726D01*
X112818572Y-113835506D01*
X112767198Y-113840001D01*
X112760132Y-113841460D01*
X112760120Y-113841404D01*
X112752763Y-113843035D01*
X112752777Y-113843092D01*
X112745743Y-113844759D01*
X112673575Y-113871025D01*
X112600675Y-113895181D01*
X112594126Y-113898236D01*
X112594101Y-113898183D01*
X112587308Y-113901471D01*
X112587334Y-113901523D01*
X112580880Y-113904764D01*
X112516708Y-113946971D01*
X112451347Y-113987285D01*
X112445683Y-113991765D01*
X112445647Y-113991719D01*
X112439798Y-113996484D01*
X112439835Y-113996528D01*
X112434310Y-114001164D01*
X112434304Y-114001169D01*
X112434304Y-114001170D01*
X112404496Y-114032764D01*
X112381599Y-114057033D01*
X112014358Y-114424272D01*
X112000729Y-114436051D01*
X111981468Y-114450390D01*
X111947898Y-114490397D01*
X111944253Y-114494376D01*
X111938409Y-114500222D01*
X111918059Y-114525959D01*
X111868695Y-114584789D01*
X111864729Y-114590819D01*
X111864682Y-114590788D01*
X111860630Y-114597147D01*
X111860679Y-114597177D01*
X111856889Y-114603321D01*
X111824424Y-114672941D01*
X111789960Y-114741566D01*
X111787488Y-114748357D01*
X111787432Y-114748336D01*
X111784960Y-114755450D01*
X111785015Y-114755469D01*
X111782742Y-114762327D01*
X111774975Y-114799946D01*
X111767207Y-114837565D01*
X111755288Y-114887858D01*
X111749498Y-114912286D01*
X111748661Y-114919454D01*
X111748601Y-114919447D01*
X111747835Y-114926945D01*
X111747895Y-114926951D01*
X111747265Y-114934140D01*
X111749500Y-115010916D01*
X111749500Y-118936294D01*
X111748191Y-118954263D01*
X111744710Y-118978025D01*
X110500500Y-118978025D01*
X110500500Y-100124500D01*
X110520185Y-100057461D01*
X110572989Y-100011706D01*
X110624500Y-100000500D01*
X132375500Y-100000500D01*
X132442539Y-100020185D01*
G37*
%TD.AperFunction*%
%TD*%
M02*
